<?xml version="1.0" encoding="UTF-8" standalone="no"?>
<!-- Created with Inkscape (http://www.inkscape.org/) -->

<svg
   xmlns:dc="http://purl.org/dc/elements/1.1/"
   xmlns:cc="http://creativecommons.org/ns#"
   xmlns:rdf="http://www.w3.org/1999/02/22-rdf-syntax-ns#"
   xmlns:svg="http://www.w3.org/2000/svg"
   xmlns="http://www.w3.org/2000/svg"
   xmlns:sodipodi="http://sodipodi.sourceforge.net/DTD/sodipodi-0.dtd"
   xmlns:inkscape="http://www.inkscape.org/namespaces/inkscape"
   width="221.34454mm"
   height="221.26224mm"
   viewBox="0 0 784.29169 784.00005"
   id="svg4881"
   version="1.1"
   inkscape:version="0.91 r"
   sodipodi:docname="pattern.svg">
  <defs
     id="defs4883" />
  <sodipodi:namedview
     id="base"
     pagecolor="#ffffff"
     bordercolor="#666666"
     borderopacity="1.0"
     inkscape:pageopacity="0.0"
     inkscape:pageshadow="2"
     inkscape:zoom="0.7"
     inkscape:cx="226.43162"
     inkscape:cy="352.26754"
     inkscape:document-units="px"
     inkscape:current-layer="layer1"
     showgrid="false"
     fit-margin-top="0"
     fit-margin-left="0"
     fit-margin-right="0"
     fit-margin-bottom="0"
     inkscape:window-width="1366"
     inkscape:window-height="716"
     inkscape:window-x="0"
     inkscape:window-y="0"
     inkscape:window-maximized="1" />
  <metadata
     id="metadata4886">
    <rdf:RDF>
      <cc:Work
         rdf:about="">
        <dc:format>image/svg+xml</dc:format>
        <dc:type
           rdf:resource="http://purl.org/dc/dcmitype/StillImage" />
        <dc:title />
      </cc:Work>
    </rdf:RDF>
  </metadata>
  <g
     inkscape:label="Layer 1"
     inkscape:groupmode="layer"
     id="layer1"
     transform="translate(912.1459,182.49495)">
    <path
       style="opacity:0.25;fill:#000000;fill-opacity:1;stroke:none;stroke-width:7.09838581;stroke-linecap:round;stroke-linejoin:round;stroke-miterlimit:4;stroke-dasharray:none;stroke-opacity:1"
       d="m -690.195,-101.61559 22.23367,41.163441 149.84133,-71.934011 157.8385,78.79154 20.9618,-38.5939 -180.6813,-90.30643 m -389.28776,593.71472 176.69906,84.03051 18.3538,-33.7957 -150.3145,-75.0356 0,-161.6422 -46.6617,-1.42857 m 2.85714,-33.8806 43.80456,1.42857 0,-150.3473 163.4371,-81.5864 -19.68593,-41.730943 -191.34667,89.1301857 m 594.5439,-87.6954427 -20.956,38.5843 166.8684,83.2983 0,150.3473 43.8354,0 0,-177.3916 z m 145.9124,306.1105 0,161.6422 -152.1238,75.9389 17.5515,32.3173 178.4077,-89.1697 0,-180.7287 z m -520.8229,247.521 -18.3616,33.8073 190.8731,95.4 192.0234,-95.9752 -17.5593,-32.3287 -172.5831,86.1528 -173.2152,-86.4673 z"
       id="path7893-7-9-53"
       inkscape:connector-curvature="0"
       sodipodi:nodetypes="cccccccccccccccccccccccccccccccccccccccc" />
    <path
       sodipodi:type="star"
       style="opacity:0.25;fill:#ffffff;fill-opacity:1;stroke:none;stroke-width:10;stroke-linecap:round;stroke-linejoin:round;stroke-miterlimit:4;stroke-dasharray:none;stroke-opacity:1"
       id="path7893-7-1-4-79-5"
       sodipodi:sides="6"
       sodipodi:cx="1368.75"
       sodipodi:cy="171.1122"
       sodipodi:r1="600.13019"
       sodipodi:r2="519.72797"
       sodipodi:arg1="0.52359878"
       sodipodi:arg2="1.0471976"
       inkscape:flatsided="true"
       inkscape:rounded="0"
       inkscape:randomized="0"
       d="m 1888.478,471.17729 -519.728,300.0651 -519.72799,-300.0651 0,-600.13019 519.72799,-300.06509 519.728,300.0651 z"
       transform="matrix(0.28861251,0,0,-0.24994577,-1083.9752,335.6606)" />
    <path
       sodipodi:type="star"
       style="opacity:0.25;fill:#ffffff;fill-opacity:1;stroke:none;stroke-width:10;stroke-linecap:round;stroke-linejoin:round;stroke-miterlimit:4;stroke-dasharray:none;stroke-opacity:1"
       id="path7893-7-1-6-4-5-43"
       sodipodi:sides="6"
       sodipodi:cx="1368.75"
       sodipodi:cy="171.1122"
       sodipodi:r1="600.13019"
       sodipodi:r2="519.72797"
       sodipodi:arg1="0.52359878"
       sodipodi:arg2="1.0471976"
       inkscape:flatsided="true"
       inkscape:rounded="0"
       inkscape:randomized="0"
       d="m 1888.478,471.17729 -519.728,300.0651 -519.72799,-300.0651 0,-600.13019 519.72799,-300.06509 519.728,300.0651 z"
       transform="matrix(0.28861251,0,0,-0.24994577,-733.9752,335.6606)" />
    <path
       sodipodi:type="star"
       style="opacity:0.25;fill:#ffffff;fill-opacity:1;stroke:none;stroke-width:10;stroke-linecap:round;stroke-linejoin:round;stroke-miterlimit:4;stroke-dasharray:none;stroke-opacity:1"
       id="path7893-7-1-6-8-5-8-44"
       sodipodi:sides="6"
       sodipodi:cx="1368.75"
       sodipodi:cy="171.1122"
       sodipodi:r1="600.13019"
       sodipodi:r2="519.72797"
       sodipodi:arg1="0.52359878"
       sodipodi:arg2="1.0471976"
       inkscape:flatsided="true"
       inkscape:rounded="0"
       inkscape:randomized="0"
       d="m 1888.478,471.17729 -519.728,300.0651 -519.72799,-300.0651 0,-600.13019 519.72799,-300.06509 519.728,300.0651 z"
       transform="matrix(0.28861251,0,0,-0.24994577,-908.9752,85.6606)" />
    <path
       style="opacity:0.25;fill:#ffffff;fill-opacity:1;stroke:none;stroke-width:10;stroke-linecap:round;stroke-linejoin:round;stroke-miterlimit:4;stroke-dasharray:none;stroke-opacity:1"
       d="m -369.65067,455.50445 -141.16116,-68.37088 -141.16116,70.58059 134.91117,80.17767 z"
       id="path7893-7-1-68-0-7-5"
       inkscape:connector-curvature="0"
       sodipodi:nodetypes="ccccc" />
    <path
       style="opacity:0.25;fill:#ffffff;fill-opacity:1;stroke:none;stroke-width:10;stroke-linecap:round;stroke-linejoin:round;stroke-miterlimit:4;stroke-dasharray:none;stroke-opacity:1"
       d="m -182.9657,200.74789 -20.2957,-155.52852 -136.4619,-79.28594 6.9956,156.78186 z"
       id="path7893-7-1-68-8-4-3-54"
       inkscape:connector-curvature="0"
       sodipodi:nodetypes="ccccc" />
    <path
       style="opacity:0.25;fill:#ffffff;fill-opacity:1;stroke:none;stroke-width:10;stroke-linecap:round;stroke-linejoin:round;stroke-miterlimit:4;stroke-dasharray:none;stroke-opacity:1"
       d="m -843.8594,196.54535 138.4076,-68.8115 26.1286,-145.15171 -144.2661,57.61499 z"
       id="path7893-7-1-68-9-4-1-6"
       inkscape:connector-curvature="0"
       sodipodi:nodetypes="ccccc" />
  </g>
</svg>
