<?xml version="1.0" encoding="UTF-8" standalone="no"?>
<!-- Created with Inkscape (http://www.inkscape.org/) -->

<svg
   xmlns:dc="http://purl.org/dc/elements/1.1/"
   xmlns:cc="http://creativecommons.org/ns#"
   xmlns:rdf="http://www.w3.org/1999/02/22-rdf-syntax-ns#"
   xmlns:svg="http://www.w3.org/2000/svg"
   xmlns="http://www.w3.org/2000/svg"
   xmlns:sodipodi="http://sodipodi.sourceforge.net/DTD/sodipodi-0.dtd"
   xmlns:inkscape="http://www.inkscape.org/namespaces/inkscape"
   width="173.68123mm"
   height="84.125908mm"
   viewBox="0 0 615.40593 298.08395"
   id="svg2"
   version="1.1"
   inkscape:version="0.91 r"
   sodipodi:docname="shop.svg">
  <defs
     id="defs4" />
  <sodipodi:namedview
     id="base"
     pagecolor="#ffffff"
     bordercolor="#666666"
     borderopacity="1.0"
     inkscape:pageopacity="0.0"
     inkscape:pageshadow="2"
     inkscape:zoom="0.7"
     inkscape:cx="45.908593"
     inkscape:cy="188.25105"
     inkscape:document-units="px"
     inkscape:current-layer="g4209"
     showgrid="false"
     showguides="false"
     inkscape:window-width="1366"
     inkscape:window-height="716"
     inkscape:window-x="0"
     inkscape:window-y="0"
     inkscape:window-maximized="1"
     fit-margin-top="0"
     fit-margin-left="0"
     fit-margin-right="0"
     fit-margin-bottom="0" />
  <metadata
     id="metadata7">
    <rdf:RDF>
      <cc:Work
         rdf:about="">
        <dc:format>image/svg+xml</dc:format>
        <dc:type
           rdf:resource="http://purl.org/dc/dcmitype/StillImage" />
        <dc:title />
      </cc:Work>
    </rdf:RDF>
  </metadata>
  <g
     inkscape:label="Layer 1"
     inkscape:groupmode="layer"
     id="layer1"
     transform="translate(-95.144656,-333.69487)">
    <g
       id="g4209"
       transform="translate(77.142867,71.428573)">
      <ellipse
         style="opacity:1;fill:#bbe2e5;fill-opacity:1;stroke:#000000;stroke-width:5.08492565;stroke-linecap:round;stroke-linejoin:round;stroke-miterlimit:4;stroke-dasharray:none;stroke-opacity:1"
         id="path4147"
         cx="114.46695"
         cy="482.55811"
         rx="302.95065"
         ry="150.62842"
         transform="matrix(0.98210838,-0.18831659,0.44198988,0.89702004,0,0)" />
      <g
         id="g4944"
         transform="translate(-75.714296,-107.14286)">
        <path
           style="opacity:1;fill:#aa8800;fill-opacity:1;stroke:none;stroke-width:3;stroke-miterlimit:4;stroke-dasharray:none;stroke-opacity:1"
           d="m 622.52539,423.50405 c -30.48092,0.33896 4.51978,21.86101 -47.34375,32.41729 -34.10712,7.01892 -101.44141,22.42879 -101.44141,22.42879 -31.98268,-21.43153 -95.12741,-51.13375 -145.16992,-51.16612 -58.39348,0.0477 -108.29641,24.329 -138.94726,52.00478 0,0 -88.32641,27.59848 -86.62724,56.35176 1.43722,24.32036 74.30692,42.43897 74.30692,42.43897 31.08683,26.6224 103.14516,55.68385 166.98243,54.22583 63.35822,-1.44708 133.32772,-24.45729 157.82031,-61.20865 0,0 104.02354,-61.33789 135.73047,-99.30969 11.4978,-13.76961 18.125,-44.63808 18.125,-44.63808 -15.88071,-2.57316 -26.40149,-3.62311 -33.43555,-3.54488 z m -442.78906,75.31276 c 0,0 -10.56489,16.83007 -10.99963,27.99844 -0.42926,11.02767 8.30627,36.07853 8.30627,36.07853 0,0 -46.48601,-12.79664 -47.39425,-29.34633 -0.99128,-18.06273 50.08761,-34.73064 50.08761,-34.73064 z"
           id="path4136"
           inkscape:connector-curvature="0"
           sodipodi:nodetypes="sccccscscscscscsc" />
        <path
           style="opacity:1;fill:#806600;fill-opacity:1;stroke:none;stroke-width:3;stroke-miterlimit:4;stroke-dasharray:none;stroke-opacity:1"
           d="m 189.90868,479.6057 c 0,0 32.43556,9.56321 48.99239,12.87945 16.1671,3.23818 48.9924,6.81852 48.9924,6.81852 0,0 -36.13371,35.18745 -34.09265,57.32617 3.01641,32.71805 65.02486,74.08034 65.02486,74.08034 0,0 -66.6572,-7.11034 -100.88527,-26.0981 -13.5385,-7.51038 -39.14341,-25.00127 -39.14341,-25.00127 0,0 -11.81944,-35.71349 -9.59645,-53.79063 2.06033,-16.75444 20.70813,-46.21448 20.70813,-46.21448 z"
           id="rect4178"
           inkscape:connector-curvature="0"
           sodipodi:nodetypes="cacacscac" />
        <path
           style="opacity:1;fill:#c8ab37;fill-opacity:1;stroke:none;stroke-width:3;stroke-miterlimit:4;stroke-dasharray:none;stroke-opacity:1"
           d="m 398.64321,495.83212 c 0,0 27.073,-5.22161 40.57687,-7.99457 10.31519,-2.11818 30.89376,-6.60187 30.89376,-6.60187 0,0 -27.35436,32.75172 -22.72843,50.67838 5.52383,21.40626 53.03301,39.82669 53.03301,39.82669 0,0 -14.48298,23.18361 -25.38869,30.80965 -12.03515,8.41582 -41.55112,14.64722 -41.55112,14.64722 0,0 -34.18313,-25.4958 -40.74402,-44.50979 -8.38102,-24.28886 5.90862,-76.85571 5.90862,-76.85571 z"
           id="rect4181"
           inkscape:connector-curvature="0"
           sodipodi:nodetypes="cacacacac" />
        <path
           style="opacity:1;fill:#806600;fill-opacity:1;stroke:none;stroke-width:3;stroke-miterlimit:4;stroke-dasharray:none;stroke-opacity:1"
           d="m 470.62475,557.3849 c 0,0 39.78257,-29.92233 67.56382,-45.69198 76.76213,-16.4922 68.17884,-30.34784 108.47118,-53.71245 -10.77423,24.29561 -52.87033,55.69049 -148.1717,115.61891 -15.02542,-3.03682 -27.8633,-16.21448 -27.8633,-16.21448 z"
           id="rect4178-8"
           inkscape:connector-curvature="0"
           sodipodi:nodetypes="ccccc" />
        <path
           transform="matrix(0.99793828,-0.06418084,0.20168414,0.97945062,0,0)"
           style="opacity:1;fill:#554400;fill-opacity:1;stroke:none;stroke-width:3;stroke-miterlimit:4;stroke-dasharray:none;stroke-opacity:1"
           d="m 237.30859,501.63541 113.25017,-0.0591 19.53979,14.51237 c 0,0 -73.81469,11.89453 -132.78996,9.09214 -7.78869,-0.3701 0,-23.54544 0,-23.54544 z"
           id="rect4204"
           inkscape:connector-curvature="0"
           sodipodi:nodetypes="cccsc" />
        <g
           id="g4199"
           transform="matrix(0.99338002,-0.11487444,0.11487444,0.99338002,-58.524925,39.789793)">
          <path
             sodipodi:nodetypes="cacac"
             inkscape:connector-curvature="0"
             id="path4165"
             d="m 483.37706,477.82105 c -53.10104,19.51869 -97.41724,24.6372 -147.17258,24.92639 -52.06113,0.30259 -107.14286,-9.05721 -154.28572,-24.28977 52.52589,-47.17442 89.60172,-55.9416 140,-57.22506 57.01078,-1.45186 129.22448,16.83282 161.4583,56.58844 z"
             style="opacity:1;fill:#d4aa00;fill-opacity:1;stroke:none;stroke-width:3;stroke-miterlimit:4;stroke-dasharray:none;stroke-opacity:1" />
          <ellipse
             cx="318.27554"
             cy="418.46521"
             rx="16.990568"
             ry="13.174113"
             id="path4168"
             style="opacity:1;fill:#554400;fill-opacity:1;stroke:none;stroke-width:3;stroke-miterlimit:4;stroke-dasharray:none;stroke-opacity:1" />
          <path
             sodipodi:nodetypes="sasas"
             inkscape:connector-curvature="0"
             id="path4170"
             d="m 434.3656,466.97881 c 0,9.76311 -23.60086,1.42672 -34.85026,-1.51523 -16.24405,-4.24815 -44.95178,-12.96532 -44.95178,-22.72843 0,-9.76311 31.31389,-0.19277 45.96194,4.54569 12.41828,4.01716 33.8401,9.93486 33.8401,19.69797 z"
             style="opacity:1;fill:#fff6d5;fill-opacity:1;stroke:none;stroke-width:3;stroke-miterlimit:4;stroke-dasharray:none;stroke-opacity:1" />
        </g>
      </g>
    </g>
  </g>
</svg>
