<?xml version="1.0" encoding="UTF-8" standalone="no"?>
<!-- Created with Inkscape (http://www.inkscape.org/) -->

<svg
   xmlns:dc="http://purl.org/dc/elements/1.1/"
   xmlns:cc="http://creativecommons.org/ns#"
   xmlns:rdf="http://www.w3.org/1999/02/22-rdf-syntax-ns#"
   xmlns:svg="http://www.w3.org/2000/svg"
   xmlns="http://www.w3.org/2000/svg"
   xmlns:sodipodi="http://sodipodi.sourceforge.net/DTD/sodipodi-0.dtd"
   xmlns:inkscape="http://www.inkscape.org/namespaces/inkscape"
   width="173.76825mm"
   height="144.73967mm"
   viewBox="0 0 615.71427 512.85714"
   id="svg2"
   version="1.1"
   inkscape:version="0.91 r"
   sodipodi:docname="rest_water.svg">
  <defs
     id="defs4" />
  <sodipodi:namedview
     id="base"
     pagecolor="#ffffff"
     bordercolor="#666666"
     borderopacity="1.0"
     inkscape:pageopacity="0.0"
     inkscape:pageshadow="2"
     inkscape:zoom="0.7"
     inkscape:cx="6.7440529"
     inkscape:cy="224.95106"
     inkscape:document-units="px"
     inkscape:current-layer="g4209"
     showgrid="false"
     showguides="false"
     inkscape:window-width="1366"
     inkscape:window-height="716"
     inkscape:window-x="0"
     inkscape:window-y="0"
     inkscape:window-maximized="1"
     fit-margin-top="0"
     fit-margin-left="0"
     fit-margin-right="0"
     fit-margin-bottom="0" />
  <metadata
     id="metadata7">
    <rdf:RDF>
      <cc:Work
         rdf:about="">
        <dc:format>image/svg+xml</dc:format>
        <dc:type
           rdf:resource="http://purl.org/dc/dcmitype/StillImage" />
        <dc:title />
      </cc:Work>
    </rdf:RDF>
  </metadata>
  <g
     inkscape:label="Layer 1"
     inkscape:groupmode="layer"
     id="layer1"
     transform="translate(-82.959474,-225.05023)">
    <g
       id="g4209"
       transform="translate(77.142867,71.428573)">
      <ellipse
         style="opacity:1;fill:#d5f6ff;fill-opacity:1;stroke:none;stroke-width:2;stroke-linecap:round;stroke-linejoin:round;stroke-miterlimit:4;stroke-dasharray:none;stroke-opacity:1"
         id="path4684"
         cx="317.42102"
         cy="407.90732"
         rx="212.73885"
         ry="194.87022" />
      <g
         transform="matrix(0.56874077,0,0,0.59411733,123.16736,93.592917)"
         id="g4136"
         style="opacity:0.54887218">
        <path
           sodipodi:nodetypes="sccsccs"
           inkscape:connector-curvature="0"
           id="path4906-5"
           d="m 371.42816,257.76946 c -15.78479,-1.10497 -98.46457,98.10115 -107.37259,110.42869 -46.4907,67.82878 -124.55079,129.59442 -127.40223,210.69244 5.9e-4,88.64745 78.98271,171.62207 186.38126,171.62294 107.39942,1.5e-4 191.24982,-81.96655 191.25041,-170.61472 C 499.9125,502.13238 416.51706,436.13004 402.93869,396.53731 379.89948,342.6987 387.21295,258.87444 371.42816,257.76946 Z"
           style="opacity:1;fill:#00002b;fill-opacity:1;stroke:none;stroke-width:3;stroke-linecap:round;stroke-linejoin:round;stroke-miterlimit:4;stroke-dasharray:none;stroke-opacity:1" />
        <path
           sodipodi:nodetypes="sccccss"
           inkscape:connector-curvature="0"
           id="path4906"
           d="m 365.34213,268.15855 c -8.38916,-11.29209 -88.42194,105.91726 -96.34018,117.19835 -41.32505,62.07101 -117.89507,128.76201 -120.42968,202.97588 5.3e-4,81.12245 74.35967,146.88517 169.825,146.88597 119.17608,3.62896 149.74315,-51.40018 185.83816,-133.19467 C 507.44177,527.26157 435.62296,479.4798 399.31541,414.09187 361.34961,345.71754 384.47942,293.91795 365.34213,268.15855 Z"
           style="opacity:1;fill:#0066ff;fill-opacity:1;stroke:none;stroke-width:3;stroke-linecap:round;stroke-linejoin:round;stroke-miterlimit:4;stroke-dasharray:none;stroke-opacity:1" />
        <path
           sodipodi:nodetypes="zczssz"
           inkscape:connector-curvature="0"
           id="path4911"
           d="M 478.58923,602.62081 C 503.05667,576.51846 454.24747,511.05677 439.37197,494.19207 414.11935,474.72641 387.3037,414.65309 372.0951,382.87596 356.8865,351.09883 339.42584,380.076 344.66903,408.5795 c 5.24319,28.50351 60.52065,103.46278 50.54604,127.66141 -18.8043,45.61967 58.90672,92.48226 83.37416,66.3799 z"
           style="opacity:1;fill:#d5e5ff;fill-opacity:1;stroke:none;stroke-width:3;stroke-linecap:round;stroke-linejoin:round;stroke-miterlimit:4;stroke-dasharray:none;stroke-opacity:1" />
      </g>
      <ellipse
         style="opacity:0.52100004;fill:none;fill-opacity:1;stroke:#000000;stroke-width:5.96343231;stroke-linecap:round;stroke-linejoin:round;stroke-miterlimit:4;stroke-dasharray:none;stroke-opacity:1"
         id="path4684-0"
         cx="316.53088"
         cy="407.90732"
         rx="212.73885"
         ry="194.87022" />
      <path
         style="opacity:0.43300003;fill:#afdde9;fill-opacity:1;stroke:none;stroke-width:2;stroke-linecap:round;stroke-linejoin:round;stroke-miterlimit:4;stroke-dasharray:none;stroke-opacity:1"
         d="m 325.4321,601.14683 c -121.3982,4.97803 -219.8598,-83.98495 -219.8598,-191.6088 0,-107.62386 93.46618,-194.05488 210.9586,-194.05488 -179.97712,39.60507 -207.96849,313.40194 8.9012,385.66368 z"
         id="path4684-0-0"
         inkscape:connector-curvature="0"
         sodipodi:nodetypes="cscc" />
      <path
         style="opacity:0.75800003;fill:#ffffff;fill-opacity:1;stroke:none;stroke-width:10;stroke-linecap:round;stroke-linejoin:round;stroke-miterlimit:4;stroke-dasharray:none;stroke-opacity:1"
         d="m 383.73502,272.15043 40.05542,-16.30713 c 0,0 78.40735,57.97599 72.09978,83.16638 -6.30757,25.19038 -48.06651,21.19927 -48.06651,21.19927 z"
         id="rect4736"
         inkscape:connector-curvature="0"
         sodipodi:nodetypes="cczcc" />
    </g>
  </g>
</svg>
