<?xml version="1.0" encoding="UTF-8" standalone="no"?>
<!-- Created with Inkscape (http://www.inkscape.org/) -->

<svg
   xmlns:dc="http://purl.org/dc/elements/1.1/"
   xmlns:cc="http://creativecommons.org/ns#"
   xmlns:rdf="http://www.w3.org/1999/02/22-rdf-syntax-ns#"
   xmlns:svg="http://www.w3.org/2000/svg"
   xmlns="http://www.w3.org/2000/svg"
   xmlns:xlink="http://www.w3.org/1999/xlink"
   xmlns:sodipodi="http://sodipodi.sourceforge.net/DTD/sodipodi-0.dtd"
   xmlns:inkscape="http://www.inkscape.org/namespaces/inkscape"
   width="173.76825mm"
   height="144.73967mm"
   viewBox="0 0 615.71427 512.85714"
   id="svg2"
   version="1.1"
   inkscape:version="0.91 r"
   sodipodi:docname="rest_fire.svg">
  <defs
     id="defs4">
    <radialGradient
       inkscape:collect="always"
       xlink:href="#linearGradient4208"
       id="radialGradient4220"
       cx="336.41113"
       cy="568.91876"
       fx="336.41113"
       fy="568.91876"
       r="95.714287"
       gradientTransform="matrix(2.4695358,-0.6844309,0.70008504,1.3176093,-890.49941,87.757559)"
       gradientUnits="userSpaceOnUse" />
    <linearGradient
       inkscape:collect="always"
       id="linearGradient4208">
      <stop
         style="stop-color:#ff8080;stop-opacity:1;"
         offset="0"
         id="stop4210" />
      <stop
         style="stop-color:#ff8080;stop-opacity:0;"
         offset="1"
         id="stop4212" />
    </linearGradient>
  </defs>
  <sodipodi:namedview
     id="base"
     pagecolor="#ffffff"
     bordercolor="#666666"
     borderopacity="1.0"
     inkscape:pageopacity="0.0"
     inkscape:pageshadow="2"
     inkscape:zoom="0.7"
     inkscape:cx="-205.3988"
     inkscape:cy="204.79794"
     inkscape:document-units="px"
     inkscape:current-layer="g4209"
     showgrid="false"
     showguides="false"
     inkscape:window-width="1366"
     inkscape:window-height="716"
     inkscape:window-x="0"
     inkscape:window-y="0"
     inkscape:window-maximized="1"
     fit-margin-top="0"
     fit-margin-left="0"
     fit-margin-right="0"
     fit-margin-bottom="0" />
  <metadata
     id="metadata7">
    <rdf:RDF>
      <cc:Work
         rdf:about="">
        <dc:format>image/svg+xml</dc:format>
        <dc:type
           rdf:resource="http://purl.org/dc/dcmitype/StillImage" />
        <dc:title />
      </cc:Work>
    </rdf:RDF>
  </metadata>
  <g
     inkscape:label="Layer 1"
     inkscape:groupmode="layer"
     id="layer1"
     transform="translate(-82.959474,-225.05023)">
    <g
       id="g4209"
       transform="translate(77.142867,71.428573)">
      <ellipse
         style="opacity:1;fill:#d5f6ff;fill-opacity:1;stroke:none;stroke-width:2;stroke-linecap:round;stroke-linejoin:round;stroke-miterlimit:4;stroke-dasharray:none;stroke-opacity:1"
         id="path4684"
         cx="311.05405"
         cy="405.76447"
         rx="227.45674"
         ry="216.76408" />
      <g
         transform="matrix(0.53480849,0,0,0.57596134,107.92067,44.491237)"
         style="enable-background:new;opacity:0.658"
         id="g4145">
        <path
           sodipodi:nodetypes="ccsccccccccsccsc"
           inkscape:connector-curvature="0"
           id="path4148-0-4"
           d="m 360.75977,351.80273 c -0.36736,-0.0203 -0.71505,-0.01 -1.04102,0.0293 -0.31938,0.0386 -0.65254,0.1121 -1,0.21875 -8.24943,2.53205 -32.34916,44.17663 -49.56169,70.82219 -37.49221,-29.66125 -79.18531,-57.74924 -88.92854,-52.46672 -0.28279,0.15337 -0.56573,0.34529 -0.84961,0.57227 -17.00212,65.43323 -83.57868,322.12783 -12.02539,453.85156 26.66495,35.17858 70.31408,55.24958 121.41992,55.83203 34.25222,4.44384 70.52857,1.72076 105.50781,-7.91992 115.43631,-32.02035 189.01372,-130.08742 164.33984,-219.03907 -0.79572,-2.73362 -1.68207,-5.44089 -2.6582,-8.11914 0.26406,-0.3201 0.49315,-0.63654 0.6543,-0.94921 5.00333,-9.70779 -22.64758,-54.26829 -49.86328,-93.94727 -0.69749,-1.2297 -1.62518,-2.56718 -2.77539,-4.00391 C 523.86171,517.56255 504.5897,491.81722 499.66016,485.72461 487.7959,471.06116 383.90289,353.084 360.75977,351.80273 Z"
           style="opacity:1;fill:#552200;fill-opacity:1;stroke:none;stroke-width:3;stroke-linecap:round;stroke-linejoin:round;stroke-miterlimit:4;stroke-dasharray:none;stroke-opacity:1" />
        <g
           style="fill:url(#radialGradient4220);fill-opacity:1"
           transform="matrix(1,0,0,1.3846019,-2.8571428,-145.40544)"
           id="g4142" />
        <path
           sodipodi:nodetypes="csccsccccc"
           inkscape:connector-curvature="0"
           id="path4148"
           d="m 466.12842,378.99052 c -22.88858,0.62337 -134.05677,114.88338 -146.78236,129.06445 -10.60779,11.82104 -80.95994,96.58669 -104.33168,138.56055 -20.93373,26.22192 -32.06222,56.3896 -32.15807,87.17578 1.9e-4,92.31055 97.11373,167.14287 216.90903,167.14258 119.7953,2.9e-4 216.90884,-74.83203 216.90903,-167.14258 4.29568,-70.14371 -24.36781,-127.02685 -50.46245,-188.31836 -7.63246,-17.57575 -78.28514,-163.27604 -99.06123,-166.42578 -0.31807,-0.0482 -0.65895,-0.0665 -1.02227,-0.0566 z"
           style="opacity:1;fill:#552200;fill-opacity:1;stroke:none;stroke-width:3;stroke-linecap:round;stroke-linejoin:round;stroke-miterlimit:4;stroke-dasharray:none;stroke-opacity:1" />
        <path
           sodipodi:nodetypes="cccccccc"
           inkscape:connector-curvature="0"
           id="path4148-6"
           d="m 460.05812,400.14819 c -20.79009,0.579 -121.76606,106.70801 -133.32493,119.87992 -43.28461,63.0692 -122.72978,133.61864 -123.97597,209.67242 1.8e-4,85.74152 90.23037,164.33998 199.04249,164.3397 192.24821,-16.04146 262.39621,-125.35767 151.18627,-339.2569 -6.93269,-16.32502 -73.12804,-151.65694 -91.99932,-154.58253 -0.2889,-0.0447 -0.59853,-0.0618 -0.92854,-0.0526 z"
           style="opacity:1;fill:#ff7f2a;fill-opacity:1;stroke:none;stroke-width:3;stroke-linecap:round;stroke-linejoin:round;stroke-miterlimit:4;stroke-dasharray:none;stroke-opacity:1" />
        <path
           inkscape:transform-center-y="-41.926295"
           inkscape:transform-center-x="-152.98446"
           inkscape:connector-curvature="0"
           id="path4148-6-59"
           d="m 361.52656,366.61379 c -17.19067,4.46071 -73.84389,132.10663 -80.06326,147.76799 -5.18433,13.05499 -38.03111,105.70367 -45.6099,149.64414 a 169.44949,163.1679 11.283594 0 0 -3.32819,88.49255 169.44949,163.1679 11.283594 0 0 204.6689,122.60645 169.44949,163.1679 11.283594 0 0 124.00505,-195.8954 169.44949,163.1679 11.283594 0 0 -2.35683,-8.06395 c 0.20019,-0.28407 0.3731,-0.56836 0.49175,-0.85475 C 565.87425,654.526 487.34706,523.4725 477.52554,508.32767 467.50188,492.8712 378.81537,365.98618 362.31473,366.49504 c -0.25257,0.008 -0.51529,0.048 -0.78817,0.11875 z"
           style="opacity:1;fill:#ff7f2a;fill-opacity:1;stroke:none;stroke-width:3;stroke-linecap:round;stroke-linejoin:round;stroke-miterlimit:4;stroke-dasharray:none;stroke-opacity:1" />
        <path
           sodipodi:nodetypes="csccscccscc"
           inkscape:transform-center-y="-68.466712"
           inkscape:transform-center-x="-168.24567"
           inkscape:connector-curvature="0"
           id="path4148-6-59-2"
           d="m 236.02263,391.60727 c -16.43949,8.06222 -31.93376,136.52758 -34.49155,153.18371 -2.13211,13.8842 -10.38614,125.85428 -7.50505,170.46158 -2.83071,29.94599 11.95691,68.7167 26.53442,95.83852 43.92007,81.22879 133.39051,72.34077 220.98448,33.01499 87.59424,-39.32526 117.28514,-108.48239 73.36536,-189.7113 -1.38115,-2.49277 -2.83074,-4.95351 -4.34735,-7.37983 0.1354,-0.32094 0.24305,-0.63617 0.2948,-0.94181 2.85491,-16.8459 -108.78253,-128.12508 -122.44449,-140.82405 -13.9431,-12.96025 -134.92616,-117.97616 -151.61618,-113.92757 -0.25543,0.0622 -0.51347,0.15787 -0.77444,0.28576 z"
           style="opacity:1;fill:#ff7f2a;fill-opacity:1;stroke:none;stroke-width:3;stroke-linecap:round;stroke-linejoin:round;stroke-miterlimit:4;stroke-dasharray:none;stroke-opacity:1" />
        <path
           sodipodi:nodetypes="ccccccscccsccccsccccc"
           inkscape:connector-curvature="0"
           id="path4148-6-5"
           d="m 359.09766,423.86133 c -0.2264,-0.0177 -0.43675,-0.011 -0.63086,0.0215 -0.19025,0.0315 -0.38473,0.0927 -0.58399,0.18164 -7.07573,2.69391 -36.71539,121.76538 -39.91248,171.23717 9.52307,-44.82093 -63.44134,-133.16138 -70.09142,-130.39537 -0.17765,0.074 -0.35345,0.17539 -0.52735,0.30273 -10.95643,8.02128 -24.15583,139.44884 -24.06054,153.04297 0.0794,11.33179 -19.84149,75.37508 -12.54297,110.85938 1.45092,24.27323 13.71293,63.68009 27.43359,84.03906 21.97103,32.43863 63.38603,46.93672 106.18945,47.40039 39.75077,14.53107 86.06887,15.05035 121.11719,1 14.43974,-5.78855 27.31052,-14.19076 38.35742,-24.55859 33.63827,-24.0404 55.69133,-64.25076 55.69141,-109.80469 -0.0217,-2.26999 -0.0988,-4.53882 -0.23242,-6.80469 0.20158,-0.18969 0.38184,-0.38392 0.52343,-0.58984 7.80526,-11.34999 -25.77525,-129.0479 -30.20898,-142.78125 -4.52497,-14.01598 -46.41122,-130.20696 -58.72852,-132.71875 -0.18857,-0.0384 -0.39007,-0.0528 -0.60546,-0.0449 -6.1228,0.22429 -31.76833,114.96479 -35.53911,148.83477 7.72477,-47.32405 -67.34718,-168.57237 -75.64839,-169.22149 z"
           style="opacity:1;fill:#ffb380;fill-opacity:1;stroke:none;stroke-width:3;stroke-linecap:round;stroke-linejoin:round;stroke-miterlimit:4;stroke-dasharray:none;stroke-opacity:1" />
        <path
           inkscape:connector-curvature="0"
           id="path4148-6-5-4"
           d="m 362.2793,569.96289 c -0.12311,-0.005 -0.23988,0.004 -0.34766,0.0293 -6.42609,1.49009 -26.74865,63.97625 -32.24414,81.89062 -12.21549,-11.64666 -23.92015,-21.81188 -27.4082,-21.92187 -0.12311,-0.004 -0.23988,0.005 -0.34766,0.0234 -7.04017,1.2359 -30.98008,58.4063 -33.56641,65.30273 -2.53418,6.75738 -21.72881,64.66925 -17.26757,70.25391 0.0809,0.10132 0.18557,0.19771 0.30078,0.29101 -0.0764,1.11489 -0.12041,2.23074 -0.13282,3.34766 8e-5,36.22115 32.90621,65.5841 73.5,65.58398 8.55074,3e-5 17.64282,-1.31758 26.66797,-3.71289 10.00762,6.01431 21.32804,9.42778 33.33203,9.42774 7.41341,2e-5 15.23374,-1.30692 23.06446,-3.7129 11.98513,4.20562 24.46849,6.57035 35.97461,6.57032 40.5938,1.2e-4 73.50188,-29.36284 73.50195,-65.58399 -0.0124,-1.11692 -0.0564,-2.23472 -0.13281,-3.34961 0.11521,-0.0933 0.2179,-0.18774 0.29883,-0.28906 4.46124,-5.58466 -14.73145,-63.49848 -17.26563,-70.25586 -2.58633,-6.89643 -26.52819,-64.06682 -33.56836,-65.30273 -0.10778,-0.0189 -0.22259,-0.0254 -0.3457,-0.0215 -3.55314,0.11205 -15.63356,10.66039 -28.09375,22.57813 -7.47209,-8.35202 -13.93056,-14.92272 -15.48047,-17.56445 -4.3122,-7.34987 -52.68342,-73.26092 -60.43945,-73.58399 z"
           style="opacity:1;fill:#ffcc00;fill-opacity:1;stroke:none;stroke-width:3;stroke-linecap:round;stroke-linejoin:round;stroke-miterlimit:4;stroke-dasharray:none;stroke-opacity:1" />
      </g>
      <ellipse
         style="opacity:0.52100004;fill:none;fill-opacity:1;stroke:#000000;stroke-width:6.50344133;stroke-linecap:round;stroke-linejoin:round;stroke-miterlimit:4;stroke-dasharray:none;stroke-opacity:1"
         id="path4684-0"
         cx="310.10233"
         cy="405.76447"
         rx="227.45674"
         ry="216.76408" />
      <path
         style="opacity:0.43300003;fill:#afdde9;fill-opacity:1;stroke:none;stroke-width:2;stroke-linecap:round;stroke-linejoin:round;stroke-miterlimit:4;stroke-dasharray:none;stroke-opacity:1"
         d="M 319.61935,620.71462 C 189.82246,626.25194 84.548992,527.29388 84.548992,407.57838 c 0,-119.7155 99.932448,-215.85712 225.553338,-215.85712 C 117.67387,235.776 87.745972,540.3342 319.61935,620.71462 Z"
         id="path4684-0-0"
         inkscape:connector-curvature="0"
         sodipodi:nodetypes="cscc" />
      <path
         style="opacity:0.75800003;fill:#ffffff;fill-opacity:1;stroke:none;stroke-width:10;stroke-linecap:round;stroke-linejoin:round;stroke-miterlimit:4;stroke-dasharray:none;stroke-opacity:1"
         d="m 381.95583,254.75516 42.82658,-18.13925 c 0,0 83.8318,64.48964 77.08786,92.51019 -6.74395,28.02055 -51.3919,23.58104 -51.3919,23.58104 z"
         id="rect4736"
         inkscape:connector-curvature="0"
         sodipodi:nodetypes="cczcc" />
    </g>
  </g>
</svg>
