<?xml version="1.0" encoding="UTF-8" standalone="no"?>
<!-- Created with Inkscape (http://www.inkscape.org/) -->

<svg
   xmlns:dc="http://purl.org/dc/elements/1.1/"
   xmlns:cc="http://creativecommons.org/ns#"
   xmlns:rdf="http://www.w3.org/1999/02/22-rdf-syntax-ns#"
   xmlns:svg="http://www.w3.org/2000/svg"
   xmlns="http://www.w3.org/2000/svg"
   xmlns:sodipodi="http://sodipodi.sourceforge.net/DTD/sodipodi-0.dtd"
   xmlns:inkscape="http://www.inkscape.org/namespaces/inkscape"
   width="106.63938mm"
   height="106.6113mm"
   viewBox="0 0 106.63938 106.6113"
   version="1.1"
   id="svg8"
   inkscape:version="0.92.3 (2405546, 2018-03-11)"
   sodipodi:docname="tile.svg">
  <defs
     id="defs2" />
  <sodipodi:namedview
     id="base"
     pagecolor="#ffffff"
     bordercolor="#666666"
     borderopacity="1.0"
     inkscape:pageopacity="0.0"
     inkscape:pageshadow="2"
     inkscape:zoom="2.8284271"
     inkscape:cx="425.59173"
     inkscape:cy="280.05836"
     inkscape:document-units="mm"
     inkscape:current-layer="layer1"
     showgrid="false"
     showguides="false"
     fit-margin-top="0"
     fit-margin-left="0"
     fit-margin-right="0"
     fit-margin-bottom="0"
     inkscape:window-width="3840"
     inkscape:window-height="2040"
     inkscape:window-x="1920"
     inkscape:window-y="0"
     inkscape:window-maximized="1" />
  <metadata
     id="metadata5">
    <rdf:RDF>
      <cc:Work
         rdf:about="">
        <dc:format>image/svg+xml</dc:format>
        <dc:type
           rdf:resource="http://purl.org/dc/dcmitype/StillImage" />
        <dc:title></dc:title>
      </cc:Work>
    </rdf:RDF>
  </metadata>
  <g
     inkscape:label="Layer 1"
     inkscape:groupmode="layer"
     id="layer1"
     transform="translate(0,-190.3887)">
    <path
       style="opacity:1;fill:#000000;fill-opacity:1;stroke:#ffcc00;stroke-width:0;stroke-linecap:butt;stroke-linejoin:miter;stroke-miterlimit:4;stroke-dasharray:none;stroke-dashoffset:0;stroke-opacity:1"
       d="m 0.49273818,190.45704 c -1.0398,0.45946 -0.0563,2.23379 -0.39636,3.10676 0.0326,34.38453 -0.0652,68.7908 0.0489,103.16175 1.31034002,0.61254 3.10993002,-0.0257 4.56369002,0.20614 33.8825998,-0.0326 67.7869628,0.0652 101.6559718,-0.0489 0.61252,-1.31035 -0.0257,-3.10991 0.20613,-4.56369 -0.0326,-33.88259 0.0652,-67.78694 -0.0489,-101.65595 -1.31036,-0.61253 -3.10992,0.0257 -4.56369,-0.20614 -33.821909,0 -67.643832,0 -101.46574182,0 z m 0.39688,0.79272 c 2.47237002,0 4.94474002,0 7.41712002,0 -1.72323,21.14924 -2.05259,42.7885 2.9571598,63.54251 2.55035,10.20006 7.47558,20.92169 17.38085,25.81561 14.727953,7.54496 31.699943,8.64748 47.953653,9.19289 9.73588,0.16886 19.4845,-0.16846 29.179909,-1.07945 0,2.47238 0,4.94475 0,7.41712 -34.962899,0 -69.925802,0 -104.88869182,0 0,-34.96289 0,-69.92579 0,-104.88868 z m 25.99323982,0 c 26.298483,0 52.596973,0 78.895452,0 0,26.29848 0,52.59695 0,78.89543 -17.254899,-0.66704 -34.858649,-2.28335 -51.101329,-8.53158 -7.72751,-2.83704 -14.586343,-8.33517 -17.831763,-16.04933 -7.11396,-15.69699 -8.77968,-33.20046 -9.82626,-50.20302 -0.0607,-1.36992 -0.10985,-2.74046 -0.1361,-4.1115 z m -9.28677,4.62142 c 2.42535,3.96875 4.8507,7.9375 7.27604,11.90625 -4.85069,0 -9.70139,0 -14.55208,0 2.42535,-3.96875 4.85069,-7.9375 7.27604,-11.90625 z m 0,15.875 c 2.42535,3.96875 4.8507,7.9375 7.27604,11.90625 -4.85069,0 -9.70139,0 -14.55208,0 2.42535,-3.96875 4.85069,-7.9375 7.27604,-11.90625 z m 68.333303,60.12193 c 0,4.85068 0,9.70139 0,14.55208 -3.96875,-2.42536 -7.9375,-4.85069 -11.90625,-7.27604 3.96875,-2.42536 7.9375,-4.85069 11.90625,-7.27604 z m 15.874999,0 c 0,4.85068 0,9.70139 0,14.55208 -3.968749,-2.42536 -7.937499,-4.85069 -11.906249,-7.27604 3.96875,-2.42536 7.9375,-4.85069 11.906249,-7.27604 z"
       id="rect815"
       inkscape:connector-curvature="0" />
  </g>
</svg>
