<?xml version="1.0" encoding="UTF-8" standalone="no"?>
<!-- Created with Inkscape (http://www.inkscape.org/) -->

<svg
   xmlns:dc="http://purl.org/dc/elements/1.1/"
   xmlns:cc="http://creativecommons.org/ns#"
   xmlns:rdf="http://www.w3.org/1999/02/22-rdf-syntax-ns#"
   xmlns:svg="http://www.w3.org/2000/svg"
   xmlns="http://www.w3.org/2000/svg"
   xmlns:sodipodi="http://sodipodi.sourceforge.net/DTD/sodipodi-0.dtd"
   xmlns:inkscape="http://www.inkscape.org/namespaces/inkscape"
   width="210mm"
   height="297mm"
   viewBox="0 0 210 297"
   version="1.1"
   id="svg1239"
   inkscape:version="0.92.1 r15371"
   sodipodi:docname="tiles.svg">
  <defs
     id="defs1233" />
  <sodipodi:namedview
     id="base"
     pagecolor="#ffffff"
     bordercolor="#666666"
     borderopacity="1.0"
     inkscape:pageopacity="0.0"
     inkscape:pageshadow="2"
     inkscape:zoom="1"
     inkscape:cx="-415.56286"
     inkscape:cy="785.77826"
     inkscape:document-units="mm"
     inkscape:current-layer="layer1"
     showgrid="false"
     inkscape:snap-global="false"
     inkscape:window-width="3840"
     inkscape:window-height="2059"
     inkscape:window-x="1920"
     inkscape:window-y="216"
     inkscape:window-maximized="1" />
  <metadata
     id="metadata1236">
    <rdf:RDF>
      <cc:Work
         rdf:about="">
        <dc:format>image/svg+xml</dc:format>
        <dc:type
           rdf:resource="http://purl.org/dc/dcmitype/StillImage" />
        <dc:title />
      </cc:Work>
    </rdf:RDF>
  </metadata>
  <g
     inkscape:label="Layer 1"
     inkscape:groupmode="layer"
     id="layer1">
    <g
       id="g6242"
       transform="matrix(0.49999992,0,0,0.49999983,19.84375,40.020866)">
      <rect
         style="opacity:1;fill:#abc837;fill-opacity:1;stroke:none;stroke-width:0.82913446;stroke-miterlimit:4;stroke-dasharray:none;stroke-opacity:1"
         id="rect6226"
         width="105.83334"
         height="105.83334"
         x="3.6666668e-06"
         y="191.16666" />
      <path
         inkscape:connector-curvature="0"
         style="opacity:0.1;fill:#000000;fill-opacity:1;stroke:none;stroke-width:0.73708391;stroke-miterlimit:4;stroke-dasharray:none;stroke-opacity:1"
         d="m 13.22865,191.16663 a 13.229166,13.229166 0 0 1 -1.41748,5.92522 l 13.91853,13.91853 h 23.218217 v -7.23935 A 13.229166,13.229166 0 0 1 39.6875,191.16663 Z m 52.917187,0 a 13.229166,13.229166 0 0 1 -9.26042,12.6168 v 7.22695 h 23.44043 l 13.76299,-13.76298 a 13.229166,13.229166 0 0 1 -1.48467,-6.08077 z M 6.28644,202.7928 A 13.229166,13.229166 0 0 1 0,204.39528 v 26.45885 a 13.229166,13.229166 0 0 1 12.6168,9.26042 h 7.22695 v -23.76444 z m 93.403087,0.0791 -13.69994,13.69994 v 23.54275 h 7.22695 a 13.229166,13.229166 0 0 1 3.39979,-5.52163 13.229166,13.229166 0 0 1 9.216493,-3.73879 13.229166,13.229166 0 0 1 5.3e-4,0 V 204.39584 A 13.229166,13.229166 0 0 1 99.689537,202.8719 Z M 12.60389,248.05209 A 13.229166,13.229166 0 0 1 0,257.31247 v 26.45832 a 13.229166,13.229166 0 0 1 6.07508,1.49035 l 13.76867,-13.76866 v -23.44043 z m 73.385697,0 v 23.21821 l 13.90975,13.90971 a 13.229166,13.229166 0 0 1 5.933483,-1.40922 13.229166,13.229166 0 0 1 5.3e-4,0 v -26.45832 a 13.229166,13.229166 0 0 1 -5.3e-4,0 13.229166,13.229166 0 0 1 -12.616283,-9.26042 z m -60.584417,29.10412 -13.69839,13.6984 a 13.229166,13.229166 0 0 1 1.52239,6.14535 H 39.6875 a 13.229166,13.229166 0 0 1 4.01216,-9.48987 13.229166,13.229166 0 0 1 5.248257,-3.12692 v -7.22696 z m 31.480247,0 v 7.23937 a 13.229166,13.229166 0 0 1 9.26042,12.60387 h 26.45833 a 13.229166,13.229166 0 0 1 1.59629,-6.29316 l -13.55008,-13.55008 z"
         id="path6228" />
    </g>
    <flowRoot
       xml:space="preserve"
       id="flowRoot6252"
       style="fill:black;fill-opacity:1;stroke:none;font-family:'MV Boli';font-style:normal;font-weight:normal;font-size:40px;line-height:1.25;letter-spacing:0px;word-spacing:0px;-inkscape-font-specification:'MV Boli';font-stretch:normal;font-variant:normal"><flowRegion
         id="flowRegion6254"><rect
           id="rect6256"
           width="132.85715"
           height="91.428574"
           x="67.14286"
           y="242.51968" /></flowRegion><flowPara
         id="flowPara6258" /></flowRoot>    <text
       xml:space="preserve"
       style="font-style:normal;font-variant:normal;font-weight:normal;font-stretch:normal;font-size:10.58333302px;line-height:1.25;font-family:'MV Boli';-inkscape-font-specification:'MV Boli';letter-spacing:0px;word-spacing:0px;fill:#000000;fill-opacity:1;stroke:none;stroke-width:0.26458332"
       x="98.651787"
       y="140.51785"
       id="text6346"><tspan
         sodipodi:role="line"
         x="98.651787"
         y="149.88124"
         style="stroke-width:0.26458332"
         id="tspan6348" /></text>
    <flowRoot
       xml:space="preserve"
       id="flowRoot4549"
       style="fill:black;fill-opacity:1;stroke:none;font-family:sans-serif;font-style:normal;font-weight:normal;font-size:40px;line-height:1.25;letter-spacing:0px;word-spacing:0px"><flowRegion
         id="flowRegion4551"><rect
           id="rect4553"
           width="231.42857"
           height="222.85715"
           x="68.571426"
           y="736.80542" /></flowRegion><flowPara
         id="flowPara4555" /></flowRoot>    <g
       transform="matrix(0.49999992,0,0,0.49999983,78.052086,40.020866)"
       id="g4558">
      <rect
         y="191.16666"
         x="3.6666668e-06"
         height="105.83334"
         width="105.83334"
         id="rect4554"
         style="opacity:1;fill:#abc837;fill-opacity:1;stroke:none;stroke-width:0.82913446;stroke-miterlimit:4;stroke-dasharray:none;stroke-opacity:1" />
      <path
         id="path4556"
         d="m 13.22865,191.16663 a 13.229166,13.229166 0 0 1 -1.41748,5.92522 l 13.91853,13.91853 h 23.218217 v -7.23935 A 13.229166,13.229166 0 0 1 39.6875,191.16663 Z m 52.917187,0 a 13.229166,13.229166 0 0 1 -9.26042,12.6168 v 7.22695 h 23.44043 l 13.76299,-13.76298 a 13.229166,13.229166 0 0 1 -1.48467,-6.08077 z M 6.28644,202.7928 A 13.229166,13.229166 0 0 1 0,204.39528 v 26.45885 a 13.229166,13.229166 0 0 1 12.6168,9.26042 h 7.22695 v -23.76444 z m 93.403087,0.0791 -13.69994,13.69994 v 23.54275 h 7.22695 a 13.229166,13.229166 0 0 1 3.39979,-5.52163 13.229166,13.229166 0 0 1 9.216493,-3.73879 13.229166,13.229166 0 0 1 5.3e-4,0 V 204.39584 A 13.229166,13.229166 0 0 1 99.689537,202.8719 Z M 12.60389,248.05209 A 13.229166,13.229166 0 0 1 0,257.31247 v 26.45832 a 13.229166,13.229166 0 0 1 6.07508,1.49035 l 13.76867,-13.76866 v -23.44043 z m 73.385697,0 v 23.21821 l 13.90975,13.90971 a 13.229166,13.229166 0 0 1 5.933483,-1.40922 13.229166,13.229166 0 0 1 5.3e-4,0 v -26.45832 a 13.229166,13.229166 0 0 1 -5.3e-4,0 13.229166,13.229166 0 0 1 -12.616283,-9.26042 z m -60.584417,29.10412 -13.69839,13.6984 a 13.229166,13.229166 0 0 1 1.52239,6.14535 H 39.6875 a 13.229166,13.229166 0 0 1 4.01216,-9.48987 13.229166,13.229166 0 0 1 5.248257,-3.12692 v -7.22696 z m 31.480247,0 v 7.23937 a 13.229166,13.229166 0 0 1 9.26042,12.60387 h 26.45833 a 13.229166,13.229166 0 0 1 1.59629,-6.29316 l -13.55008,-13.55008 z"
         style="opacity:0.1;fill:#000000;fill-opacity:1;stroke:none;stroke-width:0.73708391;stroke-miterlimit:4;stroke-dasharray:none;stroke-opacity:1"
         inkscape:connector-curvature="0" />
    </g>
    <g
       id="g4564"
       transform="matrix(0.49999992,0,0,0.49999983,136.26044,40.020866)">
      <rect
         style="opacity:1;fill:#abc837;fill-opacity:1;stroke:none;stroke-width:0.82913446;stroke-miterlimit:4;stroke-dasharray:none;stroke-opacity:1"
         id="rect4560"
         width="105.83334"
         height="105.83334"
         x="3.6666668e-06"
         y="191.16666" />
      <path
         inkscape:connector-curvature="0"
         style="opacity:0.1;fill:#000000;fill-opacity:1;stroke:none;stroke-width:0.73708391;stroke-miterlimit:4;stroke-dasharray:none;stroke-opacity:1"
         d="m 13.22865,191.16663 a 13.229166,13.229166 0 0 1 -1.41748,5.92522 l 13.91853,13.91853 h 23.218217 v -7.23935 A 13.229166,13.229166 0 0 1 39.6875,191.16663 Z m 52.917187,0 a 13.229166,13.229166 0 0 1 -9.26042,12.6168 v 7.22695 h 23.44043 l 13.76299,-13.76298 a 13.229166,13.229166 0 0 1 -1.48467,-6.08077 z M 6.28644,202.7928 A 13.229166,13.229166 0 0 1 0,204.39528 v 26.45885 a 13.229166,13.229166 0 0 1 12.6168,9.26042 h 7.22695 v -23.76444 z m 93.403087,0.0791 -13.69994,13.69994 v 23.54275 h 7.22695 a 13.229166,13.229166 0 0 1 3.39979,-5.52163 13.229166,13.229166 0 0 1 9.216493,-3.73879 13.229166,13.229166 0 0 1 5.3e-4,0 V 204.39584 A 13.229166,13.229166 0 0 1 99.689537,202.8719 Z M 12.60389,248.05209 A 13.229166,13.229166 0 0 1 0,257.31247 v 26.45832 a 13.229166,13.229166 0 0 1 6.07508,1.49035 l 13.76867,-13.76866 v -23.44043 z m 73.385697,0 v 23.21821 l 13.90975,13.90971 a 13.229166,13.229166 0 0 1 5.933483,-1.40922 13.229166,13.229166 0 0 1 5.3e-4,0 v -26.45832 a 13.229166,13.229166 0 0 1 -5.3e-4,0 13.229166,13.229166 0 0 1 -12.616283,-9.26042 z m -60.584417,29.10412 -13.69839,13.6984 a 13.229166,13.229166 0 0 1 1.52239,6.14535 H 39.6875 a 13.229166,13.229166 0 0 1 4.01216,-9.48987 13.229166,13.229166 0 0 1 5.248257,-3.12692 v -7.22696 z m 31.480247,0 v 7.23937 a 13.229166,13.229166 0 0 1 9.26042,12.60387 h 26.45833 a 13.229166,13.229166 0 0 1 1.59629,-6.29316 l -13.55008,-13.55008 z"
         id="path4562" />
    </g>
    <g
       transform="matrix(0.49999992,0,0,0.49999983,19.84375,-18.187469)"
       id="g4570">
      <rect
         y="191.16666"
         x="3.6666668e-06"
         height="105.83334"
         width="105.83334"
         id="rect4566"
         style="opacity:1;fill:#abc837;fill-opacity:1;stroke:none;stroke-width:0.82913446;stroke-miterlimit:4;stroke-dasharray:none;stroke-opacity:1" />
      <path
         id="path4568"
         d="m 13.22865,191.16663 a 13.229166,13.229166 0 0 1 -1.41748,5.92522 l 13.91853,13.91853 h 23.218217 v -7.23935 A 13.229166,13.229166 0 0 1 39.6875,191.16663 Z m 52.917187,0 a 13.229166,13.229166 0 0 1 -9.26042,12.6168 v 7.22695 h 23.44043 l 13.76299,-13.76298 a 13.229166,13.229166 0 0 1 -1.48467,-6.08077 z M 6.28644,202.7928 A 13.229166,13.229166 0 0 1 0,204.39528 v 26.45885 a 13.229166,13.229166 0 0 1 12.6168,9.26042 h 7.22695 v -23.76444 z m 93.403087,0.0791 -13.69994,13.69994 v 23.54275 h 7.22695 a 13.229166,13.229166 0 0 1 3.39979,-5.52163 13.229166,13.229166 0 0 1 9.216493,-3.73879 13.229166,13.229166 0 0 1 5.3e-4,0 V 204.39584 A 13.229166,13.229166 0 0 1 99.689537,202.8719 Z M 12.60389,248.05209 A 13.229166,13.229166 0 0 1 0,257.31247 v 26.45832 a 13.229166,13.229166 0 0 1 6.07508,1.49035 l 13.76867,-13.76866 v -23.44043 z m 73.385697,0 v 23.21821 l 13.90975,13.90971 a 13.229166,13.229166 0 0 1 5.933483,-1.40922 13.229166,13.229166 0 0 1 5.3e-4,0 v -26.45832 a 13.229166,13.229166 0 0 1 -5.3e-4,0 13.229166,13.229166 0 0 1 -12.616283,-9.26042 z m -60.584417,29.10412 -13.69839,13.6984 a 13.229166,13.229166 0 0 1 1.52239,6.14535 H 39.6875 a 13.229166,13.229166 0 0 1 4.01216,-9.48987 13.229166,13.229166 0 0 1 5.248257,-3.12692 v -7.22696 z m 31.480247,0 v 7.23937 a 13.229166,13.229166 0 0 1 9.26042,12.60387 h 26.45833 a 13.229166,13.229166 0 0 1 1.59629,-6.29316 l -13.55008,-13.55008 z"
         style="opacity:0.1;fill:#000000;fill-opacity:1;stroke:none;stroke-width:0.73708391;stroke-miterlimit:4;stroke-dasharray:none;stroke-opacity:1"
         inkscape:connector-curvature="0" />
    </g>
    <g
       id="g4576"
       transform="matrix(0.49999992,0,0,0.49999983,78.052086,-18.187469)">
      <rect
         style="opacity:1;fill:#abc837;fill-opacity:1;stroke:none;stroke-width:0.82913446;stroke-miterlimit:4;stroke-dasharray:none;stroke-opacity:1"
         id="rect4572"
         width="105.83334"
         height="105.83334"
         x="3.6666668e-06"
         y="191.16666" />
      <path
         inkscape:connector-curvature="0"
         style="opacity:0.1;fill:#000000;fill-opacity:1;stroke:none;stroke-width:0.73708391;stroke-miterlimit:4;stroke-dasharray:none;stroke-opacity:1"
         d="m 13.22865,191.16663 a 13.229166,13.229166 0 0 1 -1.41748,5.92522 l 13.91853,13.91853 h 23.218217 v -7.23935 A 13.229166,13.229166 0 0 1 39.6875,191.16663 Z m 52.917187,0 a 13.229166,13.229166 0 0 1 -9.26042,12.6168 v 7.22695 h 23.44043 l 13.76299,-13.76298 a 13.229166,13.229166 0 0 1 -1.48467,-6.08077 z M 6.28644,202.7928 A 13.229166,13.229166 0 0 1 0,204.39528 v 26.45885 a 13.229166,13.229166 0 0 1 12.6168,9.26042 h 7.22695 v -23.76444 z m 93.403087,0.0791 -13.69994,13.69994 v 23.54275 h 7.22695 a 13.229166,13.229166 0 0 1 3.39979,-5.52163 13.229166,13.229166 0 0 1 9.216493,-3.73879 13.229166,13.229166 0 0 1 5.3e-4,0 V 204.39584 A 13.229166,13.229166 0 0 1 99.689537,202.8719 Z M 12.60389,248.05209 A 13.229166,13.229166 0 0 1 0,257.31247 v 26.45832 a 13.229166,13.229166 0 0 1 6.07508,1.49035 l 13.76867,-13.76866 v -23.44043 z m 73.385697,0 v 23.21821 l 13.90975,13.90971 a 13.229166,13.229166 0 0 1 5.933483,-1.40922 13.229166,13.229166 0 0 1 5.3e-4,0 v -26.45832 a 13.229166,13.229166 0 0 1 -5.3e-4,0 13.229166,13.229166 0 0 1 -12.616283,-9.26042 z m -60.584417,29.10412 -13.69839,13.6984 a 13.229166,13.229166 0 0 1 1.52239,6.14535 H 39.6875 a 13.229166,13.229166 0 0 1 4.01216,-9.48987 13.229166,13.229166 0 0 1 5.248257,-3.12692 v -7.22696 z m 31.480247,0 v 7.23937 a 13.229166,13.229166 0 0 1 9.26042,12.60387 h 26.45833 a 13.229166,13.229166 0 0 1 1.59629,-6.29316 l -13.55008,-13.55008 z"
         id="path4574" />
    </g>
    <g
       transform="matrix(0.49999992,0,0,0.49999983,136.26044,-18.187469)"
       id="g4582">
      <rect
         y="191.16666"
         x="3.6666668e-06"
         height="105.83334"
         width="105.83334"
         id="rect4578"
         style="opacity:1;fill:#abc837;fill-opacity:1;stroke:none;stroke-width:0.82913446;stroke-miterlimit:4;stroke-dasharray:none;stroke-opacity:1" />
      <path
         id="path4580"
         d="m 13.22865,191.16663 a 13.229166,13.229166 0 0 1 -1.41748,5.92522 l 13.91853,13.91853 h 23.218217 v -7.23935 A 13.229166,13.229166 0 0 1 39.6875,191.16663 Z m 52.917187,0 a 13.229166,13.229166 0 0 1 -9.26042,12.6168 v 7.22695 h 23.44043 l 13.76299,-13.76298 a 13.229166,13.229166 0 0 1 -1.48467,-6.08077 z M 6.28644,202.7928 A 13.229166,13.229166 0 0 1 0,204.39528 v 26.45885 a 13.229166,13.229166 0 0 1 12.6168,9.26042 h 7.22695 v -23.76444 z m 93.403087,0.0791 -13.69994,13.69994 v 23.54275 h 7.22695 a 13.229166,13.229166 0 0 1 3.39979,-5.52163 13.229166,13.229166 0 0 1 9.216493,-3.73879 13.229166,13.229166 0 0 1 5.3e-4,0 V 204.39584 A 13.229166,13.229166 0 0 1 99.689537,202.8719 Z M 12.60389,248.05209 A 13.229166,13.229166 0 0 1 0,257.31247 v 26.45832 a 13.229166,13.229166 0 0 1 6.07508,1.49035 l 13.76867,-13.76866 v -23.44043 z m 73.385697,0 v 23.21821 l 13.90975,13.90971 a 13.229166,13.229166 0 0 1 5.933483,-1.40922 13.229166,13.229166 0 0 1 5.3e-4,0 v -26.45832 a 13.229166,13.229166 0 0 1 -5.3e-4,0 13.229166,13.229166 0 0 1 -12.616283,-9.26042 z m -60.584417,29.10412 -13.69839,13.6984 a 13.229166,13.229166 0 0 1 1.52239,6.14535 H 39.6875 a 13.229166,13.229166 0 0 1 4.01216,-9.48987 13.229166,13.229166 0 0 1 5.248257,-3.12692 v -7.22696 z m 31.480247,0 v 7.23937 a 13.229166,13.229166 0 0 1 9.26042,12.60387 h 26.45833 a 13.229166,13.229166 0 0 1 1.59629,-6.29316 l -13.55008,-13.55008 z"
         style="opacity:0.1;fill:#000000;fill-opacity:1;stroke:none;stroke-width:0.73708391;stroke-miterlimit:4;stroke-dasharray:none;stroke-opacity:1"
         inkscape:connector-curvature="0" />
    </g>
    <g
       id="g4588"
       transform="matrix(0.49999992,0,0,0.49999983,19.84375,-76.395806)">
      <rect
         style="opacity:1;fill:#abc837;fill-opacity:1;stroke:none;stroke-width:0.82913446;stroke-miterlimit:4;stroke-dasharray:none;stroke-opacity:1"
         id="rect4584"
         width="105.83334"
         height="105.83334"
         x="3.6666668e-06"
         y="191.16666" />
      <path
         inkscape:connector-curvature="0"
         style="opacity:0.1;fill:#000000;fill-opacity:1;stroke:none;stroke-width:0.73708391;stroke-miterlimit:4;stroke-dasharray:none;stroke-opacity:1"
         d="m 13.22865,191.16663 a 13.229166,13.229166 0 0 1 -1.41748,5.92522 l 13.91853,13.91853 h 23.218217 v -7.23935 A 13.229166,13.229166 0 0 1 39.6875,191.16663 Z m 52.917187,0 a 13.229166,13.229166 0 0 1 -9.26042,12.6168 v 7.22695 h 23.44043 l 13.76299,-13.76298 a 13.229166,13.229166 0 0 1 -1.48467,-6.08077 z M 6.28644,202.7928 A 13.229166,13.229166 0 0 1 0,204.39528 v 26.45885 a 13.229166,13.229166 0 0 1 12.6168,9.26042 h 7.22695 v -23.76444 z m 93.403087,0.0791 -13.69994,13.69994 v 23.54275 h 7.22695 a 13.229166,13.229166 0 0 1 3.39979,-5.52163 13.229166,13.229166 0 0 1 9.216493,-3.73879 13.229166,13.229166 0 0 1 5.3e-4,0 V 204.39584 A 13.229166,13.229166 0 0 1 99.689537,202.8719 Z M 12.60389,248.05209 A 13.229166,13.229166 0 0 1 0,257.31247 v 26.45832 a 13.229166,13.229166 0 0 1 6.07508,1.49035 l 13.76867,-13.76866 v -23.44043 z m 73.385697,0 v 23.21821 l 13.90975,13.90971 a 13.229166,13.229166 0 0 1 5.933483,-1.40922 13.229166,13.229166 0 0 1 5.3e-4,0 v -26.45832 a 13.229166,13.229166 0 0 1 -5.3e-4,0 13.229166,13.229166 0 0 1 -12.616283,-9.26042 z m -60.584417,29.10412 -13.69839,13.6984 a 13.229166,13.229166 0 0 1 1.52239,6.14535 H 39.6875 a 13.229166,13.229166 0 0 1 4.01216,-9.48987 13.229166,13.229166 0 0 1 5.248257,-3.12692 v -7.22696 z m 31.480247,0 v 7.23937 a 13.229166,13.229166 0 0 1 9.26042,12.60387 h 26.45833 a 13.229166,13.229166 0 0 1 1.59629,-6.29316 l -13.55008,-13.55008 z"
         id="path4586" />
    </g>
    <g
       transform="matrix(0.49999992,0,0,0.49999983,78.052086,-76.395806)"
       id="g4594">
      <rect
         y="191.16666"
         x="3.6666668e-06"
         height="105.83334"
         width="105.83334"
         id="rect4590"
         style="opacity:1;fill:#abc837;fill-opacity:1;stroke:none;stroke-width:0.82913446;stroke-miterlimit:4;stroke-dasharray:none;stroke-opacity:1" />
      <path
         id="path4592"
         d="m 13.22865,191.16663 a 13.229166,13.229166 0 0 1 -1.41748,5.92522 l 13.91853,13.91853 h 23.218217 v -7.23935 A 13.229166,13.229166 0 0 1 39.6875,191.16663 Z m 52.917187,0 a 13.229166,13.229166 0 0 1 -9.26042,12.6168 v 7.22695 h 23.44043 l 13.76299,-13.76298 a 13.229166,13.229166 0 0 1 -1.48467,-6.08077 z M 6.28644,202.7928 A 13.229166,13.229166 0 0 1 0,204.39528 v 26.45885 a 13.229166,13.229166 0 0 1 12.6168,9.26042 h 7.22695 v -23.76444 z m 93.403087,0.0791 -13.69994,13.69994 v 23.54275 h 7.22695 a 13.229166,13.229166 0 0 1 3.39979,-5.52163 13.229166,13.229166 0 0 1 9.216493,-3.73879 13.229166,13.229166 0 0 1 5.3e-4,0 V 204.39584 A 13.229166,13.229166 0 0 1 99.689537,202.8719 Z M 12.60389,248.05209 A 13.229166,13.229166 0 0 1 0,257.31247 v 26.45832 a 13.229166,13.229166 0 0 1 6.07508,1.49035 l 13.76867,-13.76866 v -23.44043 z m 73.385697,0 v 23.21821 l 13.90975,13.90971 a 13.229166,13.229166 0 0 1 5.933483,-1.40922 13.229166,13.229166 0 0 1 5.3e-4,0 v -26.45832 a 13.229166,13.229166 0 0 1 -5.3e-4,0 13.229166,13.229166 0 0 1 -12.616283,-9.26042 z m -60.584417,29.10412 -13.69839,13.6984 a 13.229166,13.229166 0 0 1 1.52239,6.14535 H 39.6875 a 13.229166,13.229166 0 0 1 4.01216,-9.48987 13.229166,13.229166 0 0 1 5.248257,-3.12692 v -7.22696 z m 31.480247,0 v 7.23937 a 13.229166,13.229166 0 0 1 9.26042,12.60387 h 26.45833 a 13.229166,13.229166 0 0 1 1.59629,-6.29316 l -13.55008,-13.55008 z"
         style="opacity:0.1;fill:#000000;fill-opacity:1;stroke:none;stroke-width:0.73708391;stroke-miterlimit:4;stroke-dasharray:none;stroke-opacity:1"
         inkscape:connector-curvature="0" />
    </g>
    <g
       id="g4600"
       transform="matrix(0.49999992,0,0,0.49999983,136.26044,-76.395806)">
      <rect
         style="opacity:1;fill:#abc837;fill-opacity:1;stroke:none;stroke-width:0.82913446;stroke-miterlimit:4;stroke-dasharray:none;stroke-opacity:1"
         id="rect4596"
         width="105.83334"
         height="105.83334"
         x="3.6666668e-06"
         y="191.16666" />
      <path
         inkscape:connector-curvature="0"
         style="opacity:0.1;fill:#000000;fill-opacity:1;stroke:none;stroke-width:0.73708391;stroke-miterlimit:4;stroke-dasharray:none;stroke-opacity:1"
         d="m 13.22865,191.16663 a 13.229166,13.229166 0 0 1 -1.41748,5.92522 l 13.91853,13.91853 h 23.218217 v -7.23935 A 13.229166,13.229166 0 0 1 39.6875,191.16663 Z m 52.917187,0 a 13.229166,13.229166 0 0 1 -9.26042,12.6168 v 7.22695 h 23.44043 l 13.76299,-13.76298 a 13.229166,13.229166 0 0 1 -1.48467,-6.08077 z M 6.28644,202.7928 A 13.229166,13.229166 0 0 1 0,204.39528 v 26.45885 a 13.229166,13.229166 0 0 1 12.6168,9.26042 h 7.22695 v -23.76444 z m 93.403087,0.0791 -13.69994,13.69994 v 23.54275 h 7.22695 a 13.229166,13.229166 0 0 1 3.39979,-5.52163 13.229166,13.229166 0 0 1 9.216493,-3.73879 13.229166,13.229166 0 0 1 5.3e-4,0 V 204.39584 A 13.229166,13.229166 0 0 1 99.689537,202.8719 Z M 12.60389,248.05209 A 13.229166,13.229166 0 0 1 0,257.31247 v 26.45832 a 13.229166,13.229166 0 0 1 6.07508,1.49035 l 13.76867,-13.76866 v -23.44043 z m 73.385697,0 v 23.21821 l 13.90975,13.90971 a 13.229166,13.229166 0 0 1 5.933483,-1.40922 13.229166,13.229166 0 0 1 5.3e-4,0 v -26.45832 a 13.229166,13.229166 0 0 1 -5.3e-4,0 13.229166,13.229166 0 0 1 -12.616283,-9.26042 z m -60.584417,29.10412 -13.69839,13.6984 a 13.229166,13.229166 0 0 1 1.52239,6.14535 H 39.6875 a 13.229166,13.229166 0 0 1 4.01216,-9.48987 13.229166,13.229166 0 0 1 5.248257,-3.12692 v -7.22696 z m 31.480247,0 v 7.23937 a 13.229166,13.229166 0 0 1 9.26042,12.60387 h 26.45833 a 13.229166,13.229166 0 0 1 1.59629,-6.29316 l -13.55008,-13.55008 z"
         id="path4598" />
    </g>
    <g
       id="g4649"
       transform="translate(114.48534,206.90417)">
      <rect
         y="6.5667419"
         x="-94.641594"
         height="51.699856"
         width="51.699856"
         id="rect4614"
         style="opacity:1;fill:#cccccc;stroke:none;stroke-width:1.21681201;stroke-miterlimit:4;stroke-dasharray:none;stroke-opacity:1" />
      <rect
         ry="3.5250242"
         rx="3.5250242"
         transform="scale(-1,1)"
         y="40.354168"
         x="78.052086"
         height="13.229167"
         width="13.229167"
         id="rect4616"
         style="opacity:1;fill:#808080;stroke:none;stroke-width:0.87092972;stroke-miterlimit:4;stroke-dasharray:none;stroke-opacity:1" />
      <rect
         style="opacity:1;fill:#808080;stroke:none;stroke-width:0.87092972;stroke-miterlimit:4;stroke-dasharray:none;stroke-opacity:1"
         id="rect4622"
         width="13.229167"
         height="13.229167"
         x="62.177086"
         y="40.354168"
         transform="scale(-1,1)"
         rx="3.5250242"
         ry="3.5250242" />
      <rect
         ry="3.5250242"
         rx="3.5250242"
         transform="scale(-1,1)"
         y="40.354168"
         x="46.302078"
         height="13.229167"
         width="13.229167"
         id="rect4624"
         style="opacity:1;fill:#808080;stroke:none;stroke-width:0.87092972;stroke-miterlimit:4;stroke-dasharray:none;stroke-opacity:1" />
      <rect
         style="opacity:1;fill:#808080;stroke:none;stroke-width:0.87092972;stroke-miterlimit:4;stroke-dasharray:none;stroke-opacity:1"
         id="rect4626"
         width="13.229167"
         height="13.229167"
         x="46.302078"
         y="24.479197"
         transform="scale(-1,1)"
         rx="3.5250242"
         ry="3.5250242" />
      <rect
         ry="3.5250242"
         rx="3.5250242"
         transform="scale(-1,1)"
         y="24.479197"
         x="62.177086"
         height="13.229167"
         width="13.229167"
         id="rect4628"
         style="opacity:1;fill:#808080;stroke:none;stroke-width:0.87092972;stroke-miterlimit:4;stroke-dasharray:none;stroke-opacity:1" />
      <rect
         style="opacity:1;fill:#808080;stroke:none;stroke-width:0.87092972;stroke-miterlimit:4;stroke-dasharray:none;stroke-opacity:1"
         id="rect4630"
         width="13.229167"
         height="13.229167"
         x="78.052086"
         y="24.479197"
         transform="scale(-1,1)"
         rx="3.5250242"
         ry="3.5250242" />
      <text
         id="text4638"
         y="19.452084"
         x="-86.254166"
         style="font-style:normal;font-weight:normal;font-size:10.58333302px;line-height:1.25;font-family:sans-serif;letter-spacing:0px;word-spacing:0px;fill:#000000;fill-opacity:1;stroke:none;stroke-width:0.26458332"
         xml:space="preserve"><tspan
           style="font-weight:bold;stroke-width:0.26458332"
           y="19.452084"
           x="-86.254166"
           id="tspan4636"
           sodipodi:role="line">Boost</tspan></text>
    </g>
    <g
       transform="translate(172.69371,206.90417)"
       id="g4669">
      <rect
         style="opacity:1;fill:#cccccc;stroke:none;stroke-width:1.21681201;stroke-miterlimit:4;stroke-dasharray:none;stroke-opacity:1"
         id="rect4651"
         width="51.699856"
         height="51.699856"
         x="-94.641594"
         y="6.5667419" />
      <rect
         style="opacity:1;fill:#808080;stroke:none;stroke-width:0.87092972;stroke-miterlimit:4;stroke-dasharray:none;stroke-opacity:1"
         id="rect4653"
         width="13.229167"
         height="13.229167"
         x="78.052086"
         y="40.354168"
         transform="scale(-1,1)"
         rx="3.5250242"
         ry="3.5250242" />
      <rect
         ry="3.5250242"
         rx="3.5250242"
         transform="scale(-1,1)"
         y="40.354168"
         x="62.177086"
         height="13.229167"
         width="13.229167"
         id="rect4655"
         style="opacity:1;fill:#808080;stroke:none;stroke-width:0.87092972;stroke-miterlimit:4;stroke-dasharray:none;stroke-opacity:1" />
      <rect
         style="opacity:1;fill:#808080;stroke:none;stroke-width:0.87092972;stroke-miterlimit:4;stroke-dasharray:none;stroke-opacity:1"
         id="rect4657"
         width="13.229167"
         height="13.229167"
         x="46.302078"
         y="40.354168"
         transform="scale(-1,1)"
         rx="3.5250242"
         ry="3.5250242" />
      <rect
         ry="3.5250242"
         rx="3.5250242"
         transform="scale(-1,1)"
         y="24.479197"
         x="46.302078"
         height="13.229167"
         width="13.229167"
         id="rect4659"
         style="opacity:1;fill:#808080;stroke:none;stroke-width:0.87092972;stroke-miterlimit:4;stroke-dasharray:none;stroke-opacity:1" />
      <rect
         style="opacity:1;fill:#808080;stroke:none;stroke-width:0.87092972;stroke-miterlimit:4;stroke-dasharray:none;stroke-opacity:1"
         id="rect4661"
         width="13.229167"
         height="13.229167"
         x="62.177086"
         y="24.479197"
         transform="scale(-1,1)"
         rx="3.5250242"
         ry="3.5250242" />
      <rect
         ry="3.5250242"
         rx="3.5250242"
         transform="scale(-1,1)"
         y="24.479197"
         x="78.052086"
         height="13.229167"
         width="13.229167"
         id="rect4663"
         style="opacity:1;fill:#808080;stroke:none;stroke-width:0.87092972;stroke-miterlimit:4;stroke-dasharray:none;stroke-opacity:1" />
      <text
         xml:space="preserve"
         style="font-style:normal;font-weight:normal;font-size:10.58333302px;line-height:1.25;font-family:sans-serif;letter-spacing:0px;word-spacing:0px;fill:#000000;fill-opacity:1;stroke:none;stroke-width:0.26458332"
         x="-86.254166"
         y="19.452084"
         id="text4667"><tspan
           sodipodi:role="line"
           id="tspan4665"
           x="-86.254166"
           y="19.452084"
           style="font-weight:bold;stroke-width:0.26458332">Share</tspan></text>
    </g>
    <g
       id="g4689"
       transform="translate(230.90208,206.90417)">
      <rect
         y="6.5667419"
         x="-94.641594"
         height="51.699856"
         width="51.699856"
         id="rect4671"
         style="opacity:1;fill:#cccccc;stroke:none;stroke-width:1.21681201;stroke-miterlimit:4;stroke-dasharray:none;stroke-opacity:1" />
      <rect
         ry="3.5250242"
         rx="3.5250242"
         transform="scale(-1,1)"
         y="40.354168"
         x="78.052086"
         height="13.229167"
         width="13.229167"
         id="rect4673"
         style="opacity:1;fill:#808080;stroke:none;stroke-width:0.87092972;stroke-miterlimit:4;stroke-dasharray:none;stroke-opacity:1" />
      <rect
         style="opacity:1;fill:#808080;stroke:none;stroke-width:0.87092972;stroke-miterlimit:4;stroke-dasharray:none;stroke-opacity:1"
         id="rect4675"
         width="13.229167"
         height="13.229167"
         x="62.177086"
         y="40.354168"
         transform="scale(-1,1)"
         rx="3.5250242"
         ry="3.5250242" />
      <rect
         ry="3.5250242"
         rx="3.5250242"
         transform="scale(-1,1)"
         y="40.354168"
         x="46.302078"
         height="13.229167"
         width="13.229167"
         id="rect4677"
         style="opacity:1;fill:#808080;stroke:none;stroke-width:0.87092972;stroke-miterlimit:4;stroke-dasharray:none;stroke-opacity:1" />
      <rect
         style="opacity:1;fill:#808080;stroke:none;stroke-width:0.87092972;stroke-miterlimit:4;stroke-dasharray:none;stroke-opacity:1"
         id="rect4679"
         width="13.229167"
         height="13.229167"
         x="46.302078"
         y="24.479197"
         transform="scale(-1,1)"
         rx="3.5250242"
         ry="3.5250242" />
      <rect
         ry="3.5250242"
         rx="3.5250242"
         transform="scale(-1,1)"
         y="24.479197"
         x="62.177086"
         height="13.229167"
         width="13.229167"
         id="rect4681"
         style="opacity:1;fill:#808080;stroke:none;stroke-width:0.87092972;stroke-miterlimit:4;stroke-dasharray:none;stroke-opacity:1" />
      <rect
         style="opacity:1;fill:#808080;stroke:none;stroke-width:0.87092972;stroke-miterlimit:4;stroke-dasharray:none;stroke-opacity:1"
         id="rect4683"
         width="13.229167"
         height="13.229167"
         x="78.052086"
         y="24.479197"
         transform="scale(-1,1)"
         rx="3.5250242"
         ry="3.5250242" />
      <text
         id="text4687"
         y="19.452084"
         x="-86.254166"
         style="font-style:normal;font-weight:normal;font-size:10.58333302px;line-height:1.25;font-family:sans-serif;letter-spacing:0px;word-spacing:0px;fill:#000000;fill-opacity:1;stroke:none;stroke-width:0.26458332"
         xml:space="preserve"><tspan
           style="font-weight:bold;stroke-width:0.26458332"
           y="19.452084"
           x="-86.254166"
           id="tspan4685"
           sodipodi:role="line">Move</tspan></text>
    </g>
    <rect
       style="opacity:0.25;fill:#000000;fill-opacity:1;stroke:none;stroke-width:0.27640647;stroke-miterlimit:4;stroke-dasharray:none;stroke-opacity:1"
       id="rect6232"
       width="26.458334"
       height="26.458334"
       x="32.987896"
       y="32.164845"
       rx="0.94494039"
       ry="0.97478068" />
    <text
       id="text4621"
       y="40.411098"
       x="35.858063"
       style="font-style:normal;font-variant:normal;font-weight:bold;font-stretch:normal;font-size:10.58333302px;line-height:1.25;font-family:sans-serif;-inkscape-font-specification:'sans-serif Bold';letter-spacing:0px;word-spacing:0px;fill:#ffffff;fill-opacity:1;stroke:none;stroke-width:0.26458332"
       xml:space="preserve"><tspan
         style="font-style:normal;font-variant:normal;font-weight:bold;font-stretch:normal;font-size:7.05555534px;font-family:sans-serif;-inkscape-font-specification:'sans-serif Bold';fill:#ffffff;stroke-width:0.26458332"
         y="40.411098"
         x="35.858063"
         id="tspan4619"
         sodipodi:role="line">Rank</tspan></text>
    <text
       xml:space="preserve"
       style="font-style:normal;font-variant:normal;font-weight:normal;font-stretch:normal;font-size:10.58333302px;line-height:1.25;font-family:'MV Boli';-inkscape-font-specification:'MV Boli';text-align:center;letter-spacing:0px;word-spacing:0px;text-anchor:middle;fill:#ffffff;fill-opacity:1;stroke:none;stroke-width:0.26458332"
       x="46.479843"
       y="52.16333"
       id="text6262"><tspan
         sodipodi:role="line"
         x="46.479843"
         y="52.16333"
         style="font-style:normal;font-variant:normal;font-weight:bold;font-stretch:normal;font-family:sans-serif;-inkscape-font-specification:sans-serif;text-align:center;text-anchor:middle;fill:#ffffff;stroke-width:0.26458332;font-size:8.46666667px"
         id="tspan6264">3/6</tspan><tspan
         id="tspan4561"
         sodipodi:role="line"
         x="46.479843"
         y="65.392494"
         style="font-style:normal;font-variant:normal;font-weight:bold;font-stretch:normal;font-family:sans-serif;-inkscape-font-specification:sans-serif;text-align:center;text-anchor:middle;fill:#ffffff;stroke-width:0.26458332;font-size:8.46666667px" /></text>
    <rect
       ry="0.97478068"
       rx="0.94494039"
       y="90.373177"
       x="32.987896"
       height="26.458334"
       width="26.458334"
       id="rect4697"
       style="opacity:0.25;fill:#000000;fill-opacity:1;stroke:none;stroke-width:0.27640647;stroke-miterlimit:4;stroke-dasharray:none;stroke-opacity:1" />
    <rect
       style="opacity:0.25;fill:#000000;fill-opacity:1;stroke:none;stroke-width:0.27640647;stroke-miterlimit:4;stroke-dasharray:none;stroke-opacity:1"
       id="rect4699"
       width="26.458334"
       height="26.458334"
       x="32.987896"
       y="148.58151"
       rx="0.94494039"
       ry="0.97478068" />
    <rect
       ry="0.97478068"
       rx="0.94494039"
       y="148.58151"
       x="91.19622"
       height="26.458334"
       width="26.458334"
       id="rect4701"
       style="opacity:0.25;fill:#000000;fill-opacity:1;stroke:none;stroke-width:0.27640647;stroke-miterlimit:4;stroke-dasharray:none;stroke-opacity:1" />
    <rect
       style="opacity:0.25;fill:#000000;fill-opacity:1;stroke:none;stroke-width:0.27640647;stroke-miterlimit:4;stroke-dasharray:none;stroke-opacity:1"
       id="rect4703"
       width="26.458334"
       height="26.458334"
       x="91.19622"
       y="90.373169"
       rx="0.94494039"
       ry="0.97478068" />
    <rect
       ry="0.97478068"
       rx="0.94494039"
       y="32.164837"
       x="91.19622"
       height="26.458334"
       width="26.458334"
       id="rect4705"
       style="opacity:0.25;fill:#000000;fill-opacity:1;stroke:none;stroke-width:0.27640647;stroke-miterlimit:4;stroke-dasharray:none;stroke-opacity:1" />
    <rect
       style="opacity:0.25;fill:#000000;fill-opacity:1;stroke:none;stroke-width:0.27640647;stroke-miterlimit:4;stroke-dasharray:none;stroke-opacity:1"
       id="rect4707"
       width="26.458334"
       height="26.458334"
       x="149.40457"
       y="32.164837"
       rx="0.94494039"
       ry="0.97478068" />
    <rect
       ry="0.97478068"
       rx="0.94494039"
       y="90.373169"
       x="149.40457"
       height="26.458334"
       width="26.458334"
       id="rect4709"
       style="opacity:0.25;fill:#000000;fill-opacity:1;stroke:none;stroke-width:0.27640647;stroke-miterlimit:4;stroke-dasharray:none;stroke-opacity:1" />
    <rect
       style="opacity:0.25;fill:#000000;fill-opacity:1;stroke:none;stroke-width:0.27640647;stroke-miterlimit:4;stroke-dasharray:none;stroke-opacity:1"
       id="rect4711"
       width="26.458334"
       height="26.458334"
       x="149.40457"
       y="148.58151"
       rx="0.94494039"
       ry="0.97478068" />
    <text
       xml:space="preserve"
       style="font-style:normal;font-variant:normal;font-weight:normal;font-stretch:normal;font-size:7.05555534px;line-height:1.25;font-family:'MV Boli';-inkscape-font-specification:'MV Boli';letter-spacing:0px;word-spacing:0px;fill:#ffffff;fill-opacity:1;stroke:none;stroke-width:0.26458332"
       x="34.348606"
       y="97.873642"
       id="text6338"><tspan
         sodipodi:role="line"
         x="34.348606"
         y="97.873642"
         style="font-style:normal;font-variant:normal;font-weight:bold;font-stretch:normal;font-size:7.05555534px;font-family:sans-serif;-inkscape-font-specification:'sans-serif Bold';fill:#ffffff;stroke-width:0.26458332"
         id="tspan6342">Boost</tspan></text>
    <text
       xml:space="preserve"
       style="font-style:normal;font-weight:normal;font-size:10.58333302px;line-height:1.25;font-family:sans-serif;letter-spacing:0px;word-spacing:0px;fill:#ffffff;fill-opacity:1;stroke:none;stroke-width:0.26458332"
       x="34.166683"
       y="109.30034"
       id="text4609"><tspan
         sodipodi:role="line"
         id="tspan4607"
         x="34.166683"
         y="109.30034"
         style="font-style:normal;font-variant:normal;font-weight:bold;font-stretch:normal;font-size:8.46666622px;font-family:sans-serif;-inkscape-font-specification:'sans-serif Bold';fill:#ffffff;stroke-width:0.26458332">1/2/3</tspan></text>
    <text
       id="text4715"
       y="97.873642"
       x="92.556931"
       style="font-style:normal;font-variant:normal;font-weight:normal;font-stretch:normal;font-size:7.05555534px;line-height:1.25;font-family:'MV Boli';-inkscape-font-specification:'MV Boli';letter-spacing:0px;word-spacing:0px;fill:#ffffff;fill-opacity:1;stroke:none;stroke-width:0.26458332"
       xml:space="preserve"><tspan
         id="tspan4713"
         style="font-style:normal;font-variant:normal;font-weight:bold;font-stretch:normal;font-size:7.05555534px;font-family:sans-serif;-inkscape-font-specification:'sans-serif Bold';fill:#ffffff;stroke-width:0.26458332"
         y="97.873642"
         x="92.556931"
         sodipodi:role="line">Share</tspan></text>
    <text
       xml:space="preserve"
       style="font-style:normal;font-variant:normal;font-weight:normal;font-stretch:normal;font-size:7.05555534px;line-height:1.25;font-family:'MV Boli';-inkscape-font-specification:'MV Boli';letter-spacing:0px;word-spacing:0px;fill:#ffffff;fill-opacity:1;stroke:none;stroke-width:0.26458332"
       x="92.556931"
       y="97.873642"
       id="text4719"><tspan
         sodipodi:role="line"
         x="92.556931"
         y="97.873642"
         style="font-style:normal;font-variant:normal;font-weight:bold;font-stretch:normal;font-size:7.05555534px;font-family:sans-serif;-inkscape-font-specification:'sans-serif Bold';fill:#ffffff;stroke-width:0.26458332"
         id="tspan4717">Share</tspan></text>
    <text
       id="text4723"
       y="97.873642"
       x="150.76527"
       style="font-style:normal;font-variant:normal;font-weight:normal;font-stretch:normal;font-size:7.05555534px;line-height:1.25;font-family:'MV Boli';-inkscape-font-specification:'MV Boli';letter-spacing:0px;word-spacing:0px;fill:#ffffff;fill-opacity:1;stroke:none;stroke-width:0.26458332"
       xml:space="preserve"><tspan
         id="tspan4721"
         style="font-style:normal;font-variant:normal;font-weight:bold;font-stretch:normal;font-size:7.05555534px;font-family:sans-serif;-inkscape-font-specification:'sans-serif Bold';fill:#ffffff;stroke-width:0.26458332"
         y="97.873642"
         x="150.76527"
         sodipodi:role="line">Move</tspan></text>
    <text
       id="text4727"
       y="109.30034"
       x="92.375008"
       style="font-style:normal;font-weight:normal;font-size:10.58333302px;line-height:1.25;font-family:sans-serif;letter-spacing:0px;word-spacing:0px;fill:#ffffff;fill-opacity:1;stroke:none;stroke-width:0.26458332"
       xml:space="preserve"><tspan
         style="font-style:normal;font-variant:normal;font-weight:bold;font-stretch:normal;font-size:8.46666622px;font-family:sans-serif;-inkscape-font-specification:'sans-serif Bold';fill:#ffffff;stroke-width:0.26458332"
         y="109.30034"
         x="92.375008"
         id="tspan4725"
         sodipodi:role="line">1/3/6</tspan></text>
    <text
       xml:space="preserve"
       style="font-style:normal;font-weight:normal;font-size:10.58333302px;line-height:1.25;font-family:sans-serif;letter-spacing:0px;word-spacing:0px;fill:#ffffff;fill-opacity:1;stroke:none;stroke-width:0.26458332"
       x="150.58336"
       y="109.30034"
       id="text4731"><tspan
         sodipodi:role="line"
         id="tspan4729"
         x="150.58336"
         y="109.30034"
         style="font-style:normal;font-variant:normal;font-weight:bold;font-stretch:normal;font-size:8.46666622px;font-family:sans-serif;-inkscape-font-specification:'sans-serif Bold';fill:#ffffff;stroke-width:0.26458332">2/4/6</tspan></text>
    <text
       xml:space="preserve"
       style="font-style:normal;font-variant:normal;font-weight:bold;font-stretch:normal;font-size:10.58333302px;line-height:1.25;font-family:sans-serif;-inkscape-font-specification:'sans-serif Bold';letter-spacing:0px;word-spacing:0px;fill:#ffffff;fill-opacity:1;stroke:none;stroke-width:0.26458332"
       x="94.066391"
       y="40.411098"
       id="text4735"><tspan
         sodipodi:role="line"
         id="tspan4733"
         x="94.066391"
         y="40.411098"
         style="font-style:normal;font-variant:normal;font-weight:bold;font-stretch:normal;font-size:7.05555534px;font-family:sans-serif;-inkscape-font-specification:'sans-serif Bold';fill:#ffffff;stroke-width:0.26458332">Work</tspan></text>
    <text
       id="text4739"
       y="40.411098"
       x="152.27473"
       style="font-style:normal;font-variant:normal;font-weight:bold;font-stretch:normal;font-size:10.58333302px;line-height:1.25;font-family:sans-serif;-inkscape-font-specification:'sans-serif Bold';letter-spacing:0px;word-spacing:0px;fill:#ffffff;fill-opacity:1;stroke:none;stroke-width:0.26458332"
       xml:space="preserve"><tspan
         style="font-style:normal;font-variant:normal;font-weight:bold;font-stretch:normal;font-size:7.05555534px;font-family:sans-serif;-inkscape-font-specification:'sans-serif Bold';fill:#ffffff;stroke-width:0.26458332"
         y="40.411098"
         x="152.27473"
         id="tspan4737"
         sodipodi:role="line">Move</tspan></text>
    <text
       id="text4745"
       y="52.16333"
       x="104.68816"
       style="font-style:normal;font-variant:normal;font-weight:normal;font-stretch:normal;font-size:10.58333302px;line-height:1.25;font-family:'MV Boli';-inkscape-font-specification:'MV Boli';text-align:center;letter-spacing:0px;word-spacing:0px;text-anchor:middle;fill:#ffffff;fill-opacity:1;stroke:none;stroke-width:0.26458332"
       xml:space="preserve"><tspan
         id="tspan4741"
         style="font-style:normal;font-variant:normal;font-weight:bold;font-stretch:normal;font-size:8.46666622px;font-family:sans-serif;-inkscape-font-specification:sans-serif;text-align:center;text-anchor:middle;fill:#ffffff;stroke-width:0.26458332"
         y="52.16333"
         x="104.68816"
         sodipodi:role="line">2/3</tspan><tspan
         style="font-style:normal;font-variant:normal;font-weight:bold;font-stretch:normal;font-size:8.46666622px;font-family:sans-serif;-inkscape-font-specification:sans-serif;text-align:center;text-anchor:middle;fill:#ffffff;stroke-width:0.26458332"
         y="65.392494"
         x="104.68816"
         sodipodi:role="line"
         id="tspan4743" /></text>
    <text
       xml:space="preserve"
       style="font-style:normal;font-variant:normal;font-weight:normal;font-stretch:normal;font-size:10.58333302px;line-height:1.25;font-family:'MV Boli';-inkscape-font-specification:'MV Boli';text-align:center;letter-spacing:0px;word-spacing:0px;text-anchor:middle;fill:#ffffff;fill-opacity:1;stroke:none;stroke-width:0.26458332"
       x="162.89653"
       y="52.16333"
       id="text4751"><tspan
         sodipodi:role="line"
         x="162.89653"
         y="52.16333"
         style="font-style:normal;font-variant:normal;font-weight:bold;font-stretch:normal;font-size:8.46666622px;font-family:sans-serif;-inkscape-font-specification:sans-serif;text-align:center;text-anchor:middle;fill:#ffffff;stroke-width:0.26458332"
         id="tspan4747">2/4</tspan><tspan
         id="tspan4749"
         sodipodi:role="line"
         x="162.89653"
         y="65.392494"
         style="font-style:normal;font-variant:normal;font-weight:bold;font-stretch:normal;font-size:8.46666622px;font-family:sans-serif;-inkscape-font-specification:sans-serif;text-align:center;text-anchor:middle;fill:#ffffff;stroke-width:0.26458332" /></text>
  </g>
</svg>
