<?xml version="1.0" encoding="UTF-8" standalone="no"?>
<!-- Created with Inkscape (http://www.inkscape.org/) -->

<svg
   xmlns:dc="http://purl.org/dc/elements/1.1/"
   xmlns:cc="http://creativecommons.org/ns#"
   xmlns:rdf="http://www.w3.org/1999/02/22-rdf-syntax-ns#"
   xmlns:svg="http://www.w3.org/2000/svg"
   xmlns="http://www.w3.org/2000/svg"
   xmlns:sodipodi="http://sodipodi.sourceforge.net/DTD/sodipodi-0.dtd"
   xmlns:inkscape="http://www.inkscape.org/namespaces/inkscape"
   width="179.61559mm"
   height="159.83078mm"
   viewBox="0 0 636.43318 566.3295"
   id="svg4933"
   version="1.1"
   inkscape:version="0.91 r"
   sodipodi:docname="earth.svg">
  <defs
     id="defs4935" />
  <sodipodi:namedview
     id="base"
     pagecolor="#ffffff"
     bordercolor="#666666"
     borderopacity="1.0"
     inkscape:pageopacity="0.0"
     inkscape:pageshadow="2"
     inkscape:zoom="0.49497475"
     inkscape:cx="105.82858"
     inkscape:cy="90.775788"
     inkscape:document-units="px"
     inkscape:current-layer="layer1"
     showgrid="false"
     inkscape:window-width="1366"
     inkscape:window-height="716"
     inkscape:window-x="0"
     inkscape:window-y="0"
     inkscape:window-maximized="1"
     fit-margin-top="0"
     fit-margin-left="0"
     fit-margin-right="0"
     fit-margin-bottom="0" />
  <metadata
     id="metadata4938">
    <rdf:RDF>
      <cc:Work
         rdf:about="">
        <dc:format>image/svg+xml</dc:format>
        <dc:type
           rdf:resource="http://purl.org/dc/dcmitype/StillImage" />
        <dc:title />
      </cc:Work>
    </rdf:RDF>
  </metadata>
  <g
     inkscape:label="Layer 1"
     inkscape:groupmode="layer"
     id="layer1"
     transform="translate(-59.28113,-272.35791)">
    <g
       id="g4138">
      <path
         sodipodi:nodetypes="ccccccc"
         inkscape:connector-curvature="0"
         id="rect4141"
         d="m 309.75432,628.24921 151.91878,4.04061 -17.1726,165.4866 31.31474,35.17692 -208.48733,1.01015 50.50763,-31.13631 z"
         style="opacity:1;fill:#803300;fill-opacity:1;stroke:#000000;stroke-width:10;stroke-linecap:round;stroke-linejoin:round;stroke-miterlimit:4;stroke-dasharray:none;stroke-opacity:1" />
      <path
         sodipodi:nodetypes="ccscccc"
         inkscape:connector-curvature="0"
         id="rect4141-7"
         transform="translate(59.28113,272.35791)"
         d="m 400.58427,345.82003 -81.09208,3.71317 c 0,0 5.04967,37.30227 23.23242,88.4043 18.18275,51.10202 -6.06055,119.52093 -6.06055,119.52093 l 72.64398,1.73967 -28.51898,-30.57115 z"
         style="opacity:1;fill:#e9afaf;fill-opacity:1;stroke:none;stroke-width:3;stroke-linecap:round;stroke-linejoin:round;stroke-miterlimit:4;stroke-dasharray:none;stroke-opacity:1" />
      <path
         sodipodi:nodetypes="cccccccccccccc"
         inkscape:connector-curvature="0"
         id="path7753"
         d="m 311.42913,279.50446 c -66.92139,0.0564 -125.70877,42.74794 -144.0957,104.64258 -63.6256,18.15826 -107.282931,74.37617 -107.333988,138.21484 3.22e-4,79.68659 67.157518,144.28516 150.000008,144.28516 33.00061,-0.0355 65.06803,-10.5381 91.23437,-29.88086 26.46448,20.22305 59.25374,31.25604 93.05274,31.31055 22.72285,-0.0376 45.13988,-5.04042 65.55859,-14.63086 25.17341,16.9398 55.14723,26.03591 85.86914,26.05859 82.84249,0 149.99968,-64.59858 150,-144.28516 -0.0645,-30.59619 -10.23866,-60.38062 -29.05273,-85.05078 0.26267,-3.0724 0.4229,-6.1521 0.48046,-9.23437 8e-4,-79.68735 -67.15672,-144.28711 -150,-144.28711 -34.01661,0.008 -67.02022,11.13761 -93.5957,31.5625 -28.41397,-30.90776 -69.22427,-48.63625 -112.11719,-48.70508 z"
         style="opacity:1;fill:#005500;fill-opacity:1;stroke:none;stroke-width:3;stroke-linecap:round;stroke-linejoin:round;stroke-miterlimit:4;stroke-dasharray:none;stroke-opacity:1" />
      <path
         id="path7753-2"
         transform="translate(59.28113,272.35791)"
         d="M 245.17578 28.339844 A 108.08632 97.984795 0 0 0 142.67578 95.478516 C 137.12693 104.28443 132.68764 113.83225 129.56445 123.98438 C 73.087803 139.54861 18.172271 171.57216 18.126953 226.29102 C 18.127238 294.59382 93.901197 366.12695 167.43555 366.12695 C 196.72823 366.09655 225.19361 357.09318 248.41992 340.51367 C 271.91087 357.84771 301.01622 367.30484 331.01758 367.35156 C 351.1873 367.31936 371.08451 363.03092 389.20898 354.81055 C 411.55392 369.33037 438.15968 377.12704 465.42969 377.14648 C 538.96403 377.14648 598.57588 321.7774 598.57617 253.47461 C 598.51887 227.2493 589.48724 201.72008 572.78711 180.57422 C 573.02027 177.94074 573.16375 175.30014 573.21484 172.6582 C 573.21555 104.35475 513.60342 48.984365 440.06836 48.984375 C 409.87384 48.991375 380.57775 58.530069 356.98828 76.037109 C 340.14981 58.350114 318.4037 45.708298 294.48047 39.234375 A 108.08632 97.984795 0 0 0 245.17578 28.339844 z "
         style="opacity:1;fill:#00d400;fill-opacity:1;stroke:none;stroke-width:3;stroke-linecap:round;stroke-linejoin:round;stroke-miterlimit:4;stroke-dasharray:none;stroke-opacity:1" />
      <path
         sodipodi:nodetypes="ccssssccsc"
         inkscape:connector-curvature="0"
         id="path7753-0"
         d="m 78.52282,495.37567 c 0,0 -20.024775,121.91274 113.44311,156.37886 105.92195,0.38569 78.35529,-32.97459 110.56691,-27.1003 32.21161,5.87429 48.44007,25.72934 79.31772,24.45935 37.43199,-1.53957 81.22368,-13.83604 100.26875,1.73801 39.06125,31.94223 114.88448,6.15354 153.23437,-21.86494 60.73873,-44.3758 16.25453,-142.23671 16.25453,-142.23671 0,0 -126.72675,74.94488 -225.39112,13.31452 -41.63041,-30.75612 -195.72098,-6.93764 -268.83349,11.09919 -39.51808,9.74909 -78.86078,-15.78798 -78.86078,-15.78798 z"
         style="opacity:1;fill:#2ca02c;fill-opacity:1;stroke:none;stroke-width:3;stroke-linecap:round;stroke-linejoin:round;stroke-miterlimit:4;stroke-dasharray:none;stroke-opacity:1" />
    </g>
  </g>
</svg>
