<?xml version="1.0" encoding="UTF-8" standalone="no"?>
<!-- Created with Inkscape (http://www.inkscape.org/) -->

<svg
   xmlns:dc="http://purl.org/dc/elements/1.1/"
   xmlns:cc="http://creativecommons.org/ns#"
   xmlns:rdf="http://www.w3.org/1999/02/22-rdf-syntax-ns#"
   xmlns:svg="http://www.w3.org/2000/svg"
   xmlns="http://www.w3.org/2000/svg"
   xmlns:sodipodi="http://sodipodi.sourceforge.net/DTD/sodipodi-0.dtd"
   xmlns:inkscape="http://www.inkscape.org/namespaces/inkscape"
   width="253.97513mm"
   height="301.0098mm"
   viewBox="0 0 899.91187 1066.5701"
   id="svg2"
   version="1.1"
   inkscape:version="0.91 r"
   sodipodi:docname="head.svg">
  <defs
     id="defs4" />
  <sodipodi:namedview
     id="base"
     pagecolor="#ffffff"
     bordercolor="#666666"
     borderopacity="1.0"
     inkscape:pageopacity="0.0"
     inkscape:pageshadow="2"
     inkscape:zoom="0.24748737"
     inkscape:cx="423.10173"
     inkscape:cy="288.93741"
     inkscape:document-units="px"
     inkscape:current-layer="layer1"
     showgrid="false"
     fit-margin-top="0"
     fit-margin-left="0"
     fit-margin-right="0"
     fit-margin-bottom="0"
     inkscape:window-width="1366"
     inkscape:window-height="716"
     inkscape:window-x="0"
     inkscape:window-y="0"
     inkscape:window-maximized="1" />
  <metadata
     id="metadata7">
    <rdf:RDF>
      <cc:Work
         rdf:about="">
        <dc:format>image/svg+xml</dc:format>
        <dc:type
           rdf:resource="http://purl.org/dc/dcmitype/StillImage" />
        <dc:title></dc:title>
      </cc:Work>
    </rdf:RDF>
  </metadata>
  <g
     inkscape:label="Layer 1"
     inkscape:groupmode="layer"
     id="layer1"
     transform="translate(273.8143,112.07387)">
    <rect
       style="opacity:1;fill:#88aa00;fill-opacity:1;stroke:#000000;stroke-width:5.29441738;stroke-linecap:round;stroke-linejoin:round;stroke-miterlimit:4;stroke-dasharray:none;stroke-opacity:1"
       id="rect4334"
       width="1151.1342"
       height="1131.1342"
       x="-391.30017"
       y="-158.17159" />
    <path
       style="opacity:1;fill:#668000;fill-opacity:1;stroke:#000000;stroke-width:4.7214241;stroke-linecap:round;stroke-linejoin:round;stroke-miterlimit:4;stroke-dasharray:none;stroke-opacity:1"
       d="m 431.0256,-115.46208 -9.11726,243.69511 122.47821,-54.092706 -48.86411,124.163586 120.35934,-6.1724 -122.37046,76.91619 89.31954,92.5745 -90.85162,-32.30185 101.4919,233.16387 -101.68558,19.54801 114.2535,234.73686 -143.05432,-118.538 55.6635,126.51961 -67.83893,-13.90992 15.94835,98.40491 -113.48882,-97.82768 C 188.32971,669.23983 455.41735,559.2921 418.62515,337.07111 338.75947,248.5217 212.41471,209.25432 163.15031,257.93459 91.963927,145.72101 -15.901327,158.23184 -117.7513,313.16234 L -270.5351,130.5769 2.567445,99.06683 -118.76689,-35.386845 111.58106,122.86312 85.01923,-97.149393 196.84233,103.79025 275.5321,-21.641241 294.59488,141.4965 Z"
       id="path4233-5-2"
       inkscape:connector-curvature="0"
       sodipodi:nodetypes="cccccccccccccccscccccccccccc" />
    <path
       style="opacity:1;fill:#668000;fill-opacity:1;stroke:#000000;stroke-width:8.03474903;stroke-linecap:round;stroke-linejoin:round;stroke-miterlimit:4;stroke-dasharray:none;stroke-opacity:1"
       d="m 181.89971,126.01318 c -162.480584,-5e-5 -294.19713,120.71644 -294.19707,269.62777 0.1085,96.3021 90.43027,171.8644 121.6244994,251.24215 C 101.11398,794.22618 218.43035,854.91181 299.35776,825.46242 c 49.73194,-18.09739 64.23951,-190.36817 90.27048,-287.32523 14.23141,-53.00747 35.85414,-80.81934 35.96091,-160.67899 6e-5,-148.91133 -81.20886,-251.44507 -243.68944,-251.44502 z"
       id="path4344-5"
       inkscape:connector-curvature="0"
       sodipodi:nodetypes="sccsacs" />
    <ellipse
       style="opacity:1;fill:#88aa00;fill-opacity:1;stroke:none;stroke-width:0;stroke-linecap:round;stroke-linejoin:round;stroke-miterlimit:4;stroke-dasharray:none;stroke-opacity:1"
       id="path4482-8"
       cx="-47.559734"
       cy="381.59863"
       rx="110"
       ry="94.285721"
       transform="matrix(0.96259285,-0.27095204,0.27095204,0.96259285,0,0)" />
    <path
       style="opacity:1;fill:#aad400;fill-opacity:1;stroke:none;stroke-width:8.03474903;stroke-linecap:round;stroke-linejoin:round;stroke-miterlimit:4;stroke-dasharray:none;stroke-opacity:1"
       d="M 255.94022,154.66817 C 9.4468104,253.89395 332.60766,790.49573 261.87016,830.22037 352.1478,857.89627 370.4158,576.47694 392.08974,517.22997 467.63539,369.3188 407.88126,154.66812 255.94022,154.66817 Z"
       id="path4344-5-4"
       inkscape:connector-curvature="0"
       sodipodi:nodetypes="cccc" />
    <g
       id="g4372"
       transform="matrix(1.1637837,-0.07005954,0.10266224,0.79419802,-20.519554,74.859245)">
      <ellipse
         ry="63.684414"
         rx="57.584396"
         cy="382.60394"
         cx="30.39142"
         id="path3336"
         style="opacity:1;fill:#cccccc;fill-opacity:1;stroke:#000000;stroke-width:4.33186531;stroke-linecap:round;stroke-linejoin:round;stroke-miterlimit:4;stroke-dasharray:none;stroke-opacity:1" />
      <ellipse
         ry="32.847343"
         rx="24.620615"
         cx="44.787525"
         cy="400.79947"
         id="path4138"
         style="opacity:1;fill:#22280b;fill-opacity:1;stroke:#000000;stroke-width:5.21695232;stroke-linecap:round;stroke-linejoin:round;stroke-miterlimit:4;stroke-dasharray:none;stroke-opacity:1" />
      <path
         sodipodi:nodetypes="acaca"
         inkscape:connector-curvature="0"
         id="rect4140-5"
         d="m 51.38782,464.51168 c -33.924969,7.70438 -81.891765,-64.69999 -81.891765,-64.69999 0,0 52.119643,32.14207 79.079804,25.70627 19.557602,-4.66869 42.757854,-42.5492 42.757854,-42.5492 0,0 -10.43027,74.8399 -39.945893,81.54292 z"
         style="opacity:1;fill:#a0892c;fill-opacity:1;stroke:#000000;stroke-width:4.33186531;stroke-linecap:round;stroke-linejoin:round;stroke-miterlimit:4;stroke-dasharray:none;stroke-opacity:1" />
      <path
         sodipodi:nodetypes="scacs"
         inkscape:connector-curvature="0"
         id="rect4140"
         d="m 47.264635,316.46222 c 29.328933,5.90793 51.521488,73.49385 51.521488,73.49385 0,0 -48.154297,-22.30446 -72.94083,-18.47163 -23.9398745,3.70191 -61.770194,38.28628 -61.770194,38.28628 0,0 5.470719,-108.96392 83.189536,-93.3085 z"
         style="opacity:1;fill:#d3bc5f;fill-opacity:1;stroke:#000000;stroke-width:4.33186531;stroke-linecap:round;stroke-linejoin:round;stroke-miterlimit:4;stroke-dasharray:none;stroke-opacity:1" />
    </g>
    <g
       id="g4378"
       transform="matrix(0.95791805,-0.04319505,0.05968427,0.86441896,-25.937072,58.272169)">
      <path
         sodipodi:nodetypes="cacac"
         inkscape:connector-curvature="0"
         id="rect4228"
         d="m 69.532376,675.27262 c 0,0 95.380824,26.60532 143.108484,20.23589 48.48725,-6.47079 140.30244,-58.68408 140.30244,-58.68408 0,0 -46.4196,158.23448 -96.80868,174.02865 C 188.0758,832.18571 69.532376,675.27262 69.532376,675.27262 Z"
         style="opacity:1;fill:#c8ab37;fill-opacity:1;stroke:#000000;stroke-width:4.17010355;stroke-linecap:round;stroke-linejoin:round;stroke-miterlimit:4;stroke-dasharray:none;stroke-opacity:1" />
      <path
         sodipodi:nodetypes="cacac"
         inkscape:connector-curvature="0"
         id="rect4228-3"
         d="m 108.50329,705.38504 c 0,0 71.79976,13.06234 107.72768,9.93516 36.49969,-3.17695 105.61535,-28.81196 105.61535,-28.81196 0,0 -34.94324,77.68794 -72.87459,85.44234 -51.23258,10.47364 -140.46844,-66.56554 -140.46844,-66.56554 z"
         style="opacity:1;fill:#504416;fill-opacity:1;stroke:#000000;stroke-width:2.53515172;stroke-linecap:round;stroke-linejoin:round;stroke-miterlimit:4;stroke-dasharray:none;stroke-opacity:1" />
    </g>
    <path
       style="opacity:1;fill:#445500;fill-opacity:1;stroke:#000000;stroke-width:4.77466154;stroke-linecap:round;stroke-linejoin:round;stroke-miterlimit:4;stroke-dasharray:none;stroke-opacity:1"
       d="m -105.22655,-115.40152 9.324512,243.68245 -125.262362,-54.089891 49.97488,124.157141 -123.09532,-6.17208 125.15216,76.91219 -91.34994,92.56969 92.91684,-32.30017 -103.79899,233.15176 103.99707,19.54699 -116.85068,234.72463 146.3062,-118.5318 -56.92883,126.51307 69.38103,-13.90923 -16.31089,98.39984 116.068613,-97.82269 C 142.98624,669.25963 -130.17277,559.31761 -92.544225,337.10817 -10.863059,248.56336 118.35374,209.29802 168.73801,257.97576 c 72.80458,-112.20775 183.1218,-99.69757 287.287,55.22488 L 612.28186,130.62468 332.97121,99.116251 457.06369,-35.33044 221.47952,122.9113 248.64515,-97.089786 134.28011,103.83942 53.801584,-21.58555 34.305465,141.54372 Z"
       id="path4233-5"
       inkscape:connector-curvature="0"
       sodipodi:nodetypes="cccccccccccccccscccccccccccc" />
    <g
       id="g4420"
       transform="matrix(0.99336901,-0.11496959,0.11496959,0.99336901,-44.559315,23.214459)">
      <path
         sodipodi:nodetypes="caascc"
         inkscape:connector-curvature="0"
         id="rect4301-2"
         d="m 165.67884,370.41674 c 0,0 10.1539,81.89671 14.96349,122.93128 3.70007,31.56828 -12.33995,72.88629 10.68823,94.8327 14.09762,13.43537 58.30307,3.74445 58.30307,3.74445 21.39114,-13.07015 -16.1369,-52.29583 -16.1369,-52.29583 z"
         style="opacity:1;fill:#ffe680;fill-opacity:1;stroke:none;stroke-width:4.79515791;stroke-linecap:round;stroke-linejoin:round;stroke-miterlimit:4;stroke-dasharray:none;stroke-opacity:1" />
      <path
         sodipodi:nodetypes="caaacc"
         inkscape:connector-curvature="0"
         id="rect4301"
         d="m 164.3366,374.49629 c 0,0 17.52311,83.59332 21.81303,126.00243 3.13997,31.04101 25.8729,72.52483 2.82703,93.55555 -14.37567,13.11865 -46.36046,8.55033 -57.95419,-7.08119 -14.87071,-20.0498 12.88308,-73.77138 12.88308,-73.77138 z"
         style="opacity:1;fill:#806600;fill-opacity:1;stroke:none;stroke-width:3.91495466;stroke-linecap:round;stroke-linejoin:round;stroke-miterlimit:4;stroke-dasharray:none;stroke-opacity:1" />
      <path
         sodipodi:nodetypes="ccccc"
         inkscape:connector-curvature="0"
         id="path4384"
         transform="translate(-273.8143,-112.07393)"
         d="m 440.57617,486.12891 6.77189,206.28797 c 6.98621,11.93301 11.09729,8.20772 19.84727,8.47736 11.43695,3.7e-4 18.18337,-10.77125 18.1836,-19.69765 -22.8137,-70.38177 -28.55789,-120.51427 -44.80276,-195.06768 z"
         style="opacity:1;fill:#ffd42a;fill-opacity:1;stroke:none;stroke-width:0;stroke-linecap:round;stroke-linejoin:round;stroke-miterlimit:4;stroke-dasharray:none;stroke-opacity:1" />
      <path
         sodipodi:nodetypes="accca"
         inkscape:connector-curvature="0"
         id="path4384-5"
         d="m 184.77871,575.18229 c -16.90915,1.32072 -47.19178,19.02389 -47.19178,19.02389 0,0 38.19217,20.82839 56.93381,-3.36992 18.24554,17.31625 58.32159,0.0886 58.32159,0.0886 -45.66672,-16.41038 -44.84751,-17.5559 -68.06362,-15.74257 z"
         style="opacity:1;fill:#aa8800;fill-opacity:1;stroke:none;stroke-width:2.257128;stroke-linecap:round;stroke-linejoin:round;stroke-miterlimit:4;stroke-dasharray:none;stroke-opacity:1" />
    </g>
    <ellipse
       style="opacity:1;fill:#cdde87;fill-opacity:1;stroke:none;stroke-width:0;stroke-linecap:round;stroke-linejoin:round;stroke-miterlimit:4;stroke-dasharray:none;stroke-opacity:1"
       id="path4482"
       cx="382.33087"
       cy="269.34213"
       rx="118.57143"
       ry="94.285721"
       transform="matrix(0.95688704,0.29046031,-0.29046031,0.95688704,0,0)" />
    <g
       id="g4476"
       transform="matrix(0.99012366,0.14019676,-0.14019676,0.99012366,43.75929,-43.802959)">
      <ellipse
         transform="matrix(0.9981929,-0.06009101,0.12819866,0.99174851,0,0)"
         ry="50.998852"
         rx="67.137108"
         cy="385.41971"
         cx="246.00801"
         id="path3336-7"
         style="opacity:1;fill:#cccccc;fill-opacity:1;stroke:#000000;stroke-width:4.18569374;stroke-linecap:round;stroke-linejoin:round;stroke-miterlimit:4;stroke-dasharray:none;stroke-opacity:1" />
      <ellipse
         transform="matrix(0.9981929,-0.06009101,0.12819866,0.99174851,0,0)"
         ry="26.304346"
         rx="28.704943"
         cx="262.7923"
         cy="399.99078"
         id="path4138-9"
         style="opacity:1;fill:#22280b;fill-opacity:1;stroke:#000000;stroke-width:5.04091501;stroke-linecap:round;stroke-linejoin:round;stroke-miterlimit:4;stroke-dasharray:none;stroke-opacity:1" />
      <path
         sodipodi:nodetypes="acaca"
         inkscape:connector-curvature="0"
         id="rect4140-5-5"
         d="m 327.81785,431.03651 c -38.69038,8.49558 -101.94655,-45.6473 -101.94655,-45.6473 0,0 63.95577,21.87569 94.67085,14.87557 22.28152,-5.07806 45.3927,-36.78808 45.3927,-36.78808 0,0 -4.45535,60.16844 -38.117,67.55981 z"
         style="opacity:1;fill:#decd87;fill-opacity:1;stroke:#000000;stroke-width:4.18079376;stroke-linecap:round;stroke-linejoin:round;stroke-miterlimit:4;stroke-dasharray:none;stroke-opacity:1" />
      <path
         sodipodi:nodetypes="scacs"
         inkscape:connector-curvature="0"
         id="rect4140-3"
         d="m 307.82026,313.74479 c 34.73906,2.6373 67.50491,54.7591 67.50491,54.7591 0,0 -58.33101,-14.34049 -86.78368,-9.55993 -27.48079,4.61727 -67.95659,34.73448 -67.95659,34.73448 0,0 -4.81975,-86.9222 87.23536,-79.93365 z"
         style="opacity:1;fill:#e9ddaf;fill-opacity:1;stroke:#000000;stroke-width:4.18079376;stroke-linecap:round;stroke-linejoin:round;stroke-miterlimit:4;stroke-dasharray:none;stroke-opacity:1" />
    </g>
  </g>
</svg>
