<?xml version="1.0" encoding="UTF-8" standalone="no"?>
<!-- Created with Inkscape (http://www.inkscape.org/) -->

<svg
   xmlns:dc="http://purl.org/dc/elements/1.1/"
   xmlns:cc="http://creativecommons.org/ns#"
   xmlns:rdf="http://www.w3.org/1999/02/22-rdf-syntax-ns#"
   xmlns:svg="http://www.w3.org/2000/svg"
   xmlns="http://www.w3.org/2000/svg"
   xmlns:sodipodi="http://sodipodi.sourceforge.net/DTD/sodipodi-0.dtd"
   xmlns:inkscape="http://www.inkscape.org/namespaces/inkscape"
   width="142.75798mm"
   height="186.5554mm"
   viewBox="0 0 505.83536 661.02308"
   id="svg15947"
   version="1.1"
   inkscape:version="0.91 r13725"
   sodipodi:docname="bush.svg">
  <defs
     id="defs15949">
    <filter
       inkscape:label="Soft Focus Lens"
       inkscape:menu="Image Effects"
       inkscape:menu-tooltip="Glowing image content without blurring it"
       style="color-interpolation-filters:sRGB"
       id="filter14628-32">
      <feGaussianBlur
         stdDeviation="5"
         result="result3"
         id="feGaussianBlur14630-44" />
      <feColorMatrix
         values="1 0 0 0 0 0 1 0 0 0 0 0 1 0 0 0 0 0 50 0 "
         result="result7"
         id="feColorMatrix14632-8" />
      <feComposite
         operator="in"
         in2="SourceGraphic"
         result="result9"
         id="feComposite14634-10" />
      <feComposite
         k4="0"
         k2="0"
         in2="result7"
         operator="arithmetic"
         in="result9"
         k1="0.5"
         k3="0.5"
         result="result1"
         id="feComposite14636-91" />
      <feBlend
         in2="result1"
         result="result5"
         mode="screen"
         in="SourceGraphic"
         id="feBlend14638-6" />
      <feBlend
         in2="result5"
         mode="darken"
         in="result5"
         result="result6"
         id="feBlend14640-6" />
      <feComposite
         in2="SourceGraphic"
         operator="in"
         result="result8"
         id="feComposite14642-27" />
    </filter>
  </defs>
  <sodipodi:namedview
     id="base"
     pagecolor="#ffffff"
     bordercolor="#666666"
     borderopacity="1.0"
     inkscape:pageopacity="0.0"
     inkscape:pageshadow="2"
     inkscape:zoom="0.35"
     inkscape:cx="-226.36803"
     inkscape:cy="181.94012"
     inkscape:document-units="px"
     inkscape:current-layer="layer1"
     showgrid="false"
     fit-margin-top="0"
     fit-margin-left="0"
     fit-margin-right="0"
     fit-margin-bottom="0"
     inkscape:window-width="1920"
     inkscape:window-height="1001"
     inkscape:window-x="-9"
     inkscape:window-y="-9"
     inkscape:window-maximized="1" />
  <metadata
     id="metadata15952">
    <rdf:RDF>
      <cc:Work
         rdf:about="">
        <dc:format>image/svg+xml</dc:format>
        <dc:type
           rdf:resource="http://purl.org/dc/dcmitype/StillImage" />
        <dc:title></dc:title>
      </cc:Work>
    </rdf:RDF>
  </metadata>
  <g
     inkscape:label="Layer 1"
     inkscape:groupmode="layer"
     id="layer1"
     transform="translate(-98.510888,-53.279232)">
    <g
       id="g8545-40-3"
       transform="matrix(1.4205113,0,0,0.97710428,1058.4874,-308.63066)"
       style="filter:url(#filter14628-32)">
      <path
         sodipodi:nodetypes="scss"
         inkscape:connector-curvature="0"
         id="path8196-1-1-72-18-31"
         d="m -494.54499,716.0272 c -4.76662,57.14071 33.67858,196.6065 33.67858,196.6065 0,0 8.97035,-248.8917 9.87581,-401.59146 0.42244,-71.24923 -36.86321,124.7713 -43.55439,204.98496 z"
         inkscape:transform-center-y="22.728855"
         inkscape:transform-center-x="14.672557"
         style="opacity:1;fill:#338000;stroke:none;stroke-width:15;stroke-miterlimit:4;stroke-dasharray:none;stroke-opacity:1" />
      <path
         sodipodi:nodetypes="scss"
         inkscape:connector-curvature="0"
         id="path8196-1-1-72-0-8-3"
         d="m -453.00292,678.49449 c -4.76662,57.14071 33.67858,196.6065 33.67858,196.6065 0,0 8.97035,-248.8917 9.87581,-401.59147 0.42244,-71.24923 -36.86321,124.77131 -43.55439,204.98497 z"
         inkscape:transform-center-y="22.728855"
         inkscape:transform-center-x="14.672557"
         style="opacity:1;fill:#44aa00;stroke:none;stroke-width:15;stroke-miterlimit:4;stroke-dasharray:none;stroke-opacity:1" />
      <path
         sodipodi:nodetypes="scss"
         inkscape:connector-curvature="0"
         id="path8196-1-1-72-1-65-7"
         d="m -520.14578,647.06592 c -4.76662,57.14071 33.67858,196.6065 33.67858,196.6065 0,0 8.97035,-248.8917 9.87581,-401.59147 0.42244,-71.24923 -36.86321,124.77131 -43.55439,204.98497 z"
         inkscape:transform-center-y="22.728855"
         inkscape:transform-center-x="14.672557"
         style="opacity:1;fill:#44aa00;stroke:none;stroke-width:15;stroke-miterlimit:4;stroke-dasharray:none;stroke-opacity:1" />
      <path
         sodipodi:nodetypes="scss"
         inkscape:connector-curvature="0"
         id="path8196-1-1-72-2-75-23"
         d="m -480.14578,684.20878 c -4.76662,57.14071 33.67858,196.6065 33.67858,196.6065 0,0 8.97035,-248.8917 9.87581,-401.59147 0.42244,-71.24923 -36.86321,124.77131 -43.55439,204.98497 z"
         inkscape:transform-center-y="22.728855"
         inkscape:transform-center-x="14.672557"
         style="opacity:1;fill:#2d5016;stroke:none;stroke-width:15;stroke-miterlimit:4;stroke-dasharray:none;stroke-opacity:1" />
      <path
         sodipodi:nodetypes="scss"
         inkscape:connector-curvature="0"
         id="path8196-1-1-46-90-756"
         d="m -458.21488,740.61232 c -7.60133,47.55033 24.75684,162.00794 24.75684,162.00794 0,0 21.12177,-206.74141 29.40602,-333.43424 3.86533,-59.11447 -43.49236,104.67548 -54.16286,171.4263 z"
         inkscape:transform-center-y="19.020029"
         inkscape:transform-center-x="4.4446334"
         style="opacity:1;fill:#71c837;stroke:none;stroke-width:15;stroke-miterlimit:4;stroke-dasharray:none;stroke-opacity:1" />
      <path
         sodipodi:nodetypes="scss"
         inkscape:connector-curvature="0"
         id="path8196-1-1-0-28-34"
         d="m -450.9854,758.07106 c -14.12907,55.52171 2.25354,193.67488 2.25354,193.67488 0,0 49.5653,-242.46108 75.30412,-391.45786 12.00958,-69.52144 -57.72354,119.84203 -77.55766,197.78298 z"
         inkscape:transform-center-y="22.572673"
         inkscape:transform-center-x="2.9217995"
         style="opacity:1;fill:#447821;stroke:none;stroke-width:15;stroke-miterlimit:4;stroke-dasharray:none;stroke-opacity:1" />
      <path
         sodipodi:nodetypes="scss"
         inkscape:connector-curvature="0"
         id="path8196-6-9"
         d="m -549.2881,786.01713 c 29.93814,59.08343 144.32039,175.53693 144.32039,175.53693 0,0 -140.13086,-250.81925 -229.89677,-402.15331 -41.88456,-70.61209 43.54931,143.67525 85.57638,226.61638 z"
         inkscape:transform-center-y="21.529104"
         inkscape:transform-center-x="-13.371013"
         style="opacity:1;fill:#00aa00;stroke:none;stroke-width:15;stroke-miterlimit:4;stroke-dasharray:none;stroke-opacity:1" />
      <path
         sodipodi:nodetypes="scss"
         inkscape:connector-curvature="0"
         id="path8196-1-17-1"
         d="m -530.90671,769.39976 c 21.33219,61.87578 118.32466,189.84145 118.32466,189.84145 0,0 -103.49654,-264.08801 -171.11852,-423.99392 -31.55225,-74.61171 22.84779,147.29144 52.79386,234.15247 z"
         inkscape:transform-center-y="23.0407"
         inkscape:transform-center-x="-10.520243"
         style="opacity:1;fill:#55d400;stroke:none;stroke-width:15;stroke-miterlimit:4;stroke-dasharray:none;stroke-opacity:1" />
      <path
         sodipodi:nodetypes="scss"
         inkscape:connector-curvature="0"
         id="path8196-1-1-1-98"
         d="m -508.73398,794.73077 c 14.93457,55.36009 98.48511,173.46189 98.48511,173.46189 0,0 -76.14172,-237.12857 -127.1805,-381.04897 -23.81458,-67.15278 7.73022,129.87308 28.69539,207.58708 z"
         inkscape:transform-center-y="20.910426"
         inkscape:transform-center-x="-8.2980723"
         style="opacity:1;fill:#338000;stroke:none;stroke-width:15;stroke-miterlimit:4;stroke-dasharray:none;stroke-opacity:1" />
      <path
         sodipodi:nodetypes="scss"
         inkscape:connector-curvature="0"
         id="path8196-1-1-4-08-47"
         d="m -499.60655,898.65792 c 14.93457,26.39795 98.48511,82.71374 98.48511,82.71374 0,0 -76.14172,-113.07263 -127.1805,-181.69979 -23.81458,-32.02121 7.73022,61.92882 28.69539,98.98605 z"
         inkscape:transform-center-y="59.422699"
         inkscape:transform-center-x="-271.15522"
         style="opacity:1;fill:#aade87;stroke:none;stroke-width:15;stroke-miterlimit:4;stroke-dasharray:none;stroke-opacity:1" />
      <path
         sodipodi:nodetypes="scss"
         inkscape:connector-curvature="0"
         id="path8196-1-1-4-3-6-68"
         d="m -472.68345,883.54153 c 3.84837,29.2618 60.70123,106.98502 60.70123,106.98502 0,0 -27.93772,-128.94171 -49.43555,-208.62861 -10.0309,-37.18165 -16.66813,60.56607 -11.26568,101.64359 z"
         inkscape:transform-center-y="-11.461497"
         inkscape:transform-center-x="5.3610949"
         style="opacity:1;fill:#8dd35f;stroke:none;stroke-width:15;stroke-miterlimit:4;stroke-dasharray:none;stroke-opacity:1" />
      <path
         sodipodi:nodetypes="scss"
         inkscape:connector-curvature="0"
         id="path8196-1-1-7-4-5"
         d="m -429.16969,772.13762 c -14.35541,55.47726 1.46372,193.68066 1.46372,193.68066 0,0 50.55371,-242.3048 76.89998,-391.22028 12.29302,-69.4835 -58.21188,119.66107 -78.3637,197.53962 z"
         inkscape:transform-center-y="22.567568"
         inkscape:transform-center-x="2.8920743"
         style="opacity:1;fill:#8dd35f;stroke:none;stroke-width:15;stroke-miterlimit:4;stroke-dasharray:none;stroke-opacity:1" />
      <path
         sodipodi:nodetypes="scss"
         inkscape:connector-curvature="0"
         id="path8196-1-1-4-3-5-3-8"
         d="m -423.77844,863.07893 c -11.13426,27.7973 1.24711,119.43699 1.24711,119.43699 0,0 39.18398,-126.68116 59.59221,-206.58708 9.52231,-37.28387 -45.20924,48.12838 -60.83932,87.15009 z"
         inkscape:transform-center-y="-11.824643"
         inkscape:transform-center-x="-0.83173979"
         style="opacity:1;fill:#71c837;stroke:none;stroke-width:15;stroke-miterlimit:4;stroke-dasharray:none;stroke-opacity:1" />
    </g>
  </g>
</svg>
