<?xml version="1.0" encoding="UTF-8" standalone="no"?>
<!-- Created with Inkscape (http://www.inkscape.org/) -->

<svg
   xmlns:dc="http://purl.org/dc/elements/1.1/"
   xmlns:cc="http://creativecommons.org/ns#"
   xmlns:rdf="http://www.w3.org/1999/02/22-rdf-syntax-ns#"
   xmlns:svg="http://www.w3.org/2000/svg"
   xmlns="http://www.w3.org/2000/svg"
   xmlns:sodipodi="http://sodipodi.sourceforge.net/DTD/sodipodi-0.dtd"
   xmlns:inkscape="http://www.inkscape.org/namespaces/inkscape"
   width="88.589241mm"
   height="95.287964mm"
   viewBox="0 0 313.89889 337.63452"
   id="svg2"
   version="1.1"
   inkscape:version="0.91 r13725"
   sodipodi:docname="merchant.svg">
  <defs
     id="defs4">
    <inkscape:perspective
       sodipodi:type="inkscape:persp3d"
       inkscape:vp_x="0 : 168.81726 : 1"
       inkscape:vp_y="0 : 1000 : 0"
       inkscape:vp_z="313.89889 : 168.81726 : 1"
       inkscape:persp3d-origin="156.94944 : 112.54484 : 1"
       id="perspective4911" />
    <clipPath
       clipPathUnits="userSpaceOnUse"
       id="clipPath5851">
      <path
         sodipodi:type="star"
         style="opacity:1;fill:#00aa00;fill-opacity:1;stroke:#000000;stroke-width:5;stroke-linecap:round;stroke-linejoin:round;stroke-miterlimit:4;stroke-dasharray:none;stroke-opacity:1"
         id="path5853"
         sodipodi:sides="6"
         sodipodi:cx="1785.9497"
         sodipodi:cy="1108.9308"
         sodipodi:r1="480.67978"
         sodipodi:r2="416.28091"
         sodipodi:arg1="0.47116626"
         sodipodi:arg2="0.99476504"
         inkscape:flatsided="true"
         inkscape:rounded="0"
         inkscape:randomized="0"
         d="M 2214.2544,1327.1237 1811.1414,1588.95 1382.8367,1370.757 1357.645,890.73784 1760.758,628.91159 2189.0627,847.10453 Z" />
    </clipPath>
    <clipPath
       clipPathUnits="userSpaceOnUse"
       id="clipPath4181-8">
      <ellipse
         style="opacity:1;fill:#00ff00;fill-opacity:1;stroke:#000000;stroke-width:7.49168539;stroke-linecap:round;stroke-linejoin:round;stroke-miterlimit:4;stroke-dasharray:none;stroke-opacity:1"
         id="ellipse4183-9"
         cx="340.97897"
         cy="271.44086"
         rx="146.72629"
         ry="137.6349"
         transform="matrix(0.9999791,0.00646581,-0.00646581,0.9999791,0,0)" />
    </clipPath>
    <clipPath
       clipPathUnits="userSpaceOnUse"
       id="clipPath4287">
      <path
         sodipodi:type="star"
         style="opacity:0.222;fill:#2b1100;fill-opacity:1;stroke:#000000;stroke-width:5;stroke-linecap:round;stroke-linejoin:round;stroke-miterlimit:4;stroke-dasharray:none;stroke-opacity:1"
         id="path4289"
         sodipodi:sides="6"
         sodipodi:cx="90.913727"
         sodipodi:cy="525.06256"
         sodipodi:r1="277.37839"
         sodipodi:r2="240.21674"
         sodipodi:arg1="0.34939328"
         sodipodi:arg2="0.87299206"
         inkscape:flatsided="true"
         inkscape:rounded="0"
         inkscape:randomized="0"
         d="M 351.53307,620.0169 138.99053,798.2427 -121.62881,703.28837 -169.70562,430.10823 42.83692,251.88242 303.45627,346.83675 Z"
         transform="matrix(0.56889992,-0.18938856,0.20540061,0.53320821,137.36876,2.2238068)" />
    </clipPath>
    <clipPath
       clipPathUnits="userSpaceOnUse"
       id="clipPath4287-2">
      <path
         sodipodi:type="star"
         style="opacity:0.222;fill:#2b1100;fill-opacity:1;stroke:#000000;stroke-width:5;stroke-linecap:round;stroke-linejoin:round;stroke-miterlimit:4;stroke-dasharray:none;stroke-opacity:1"
         id="path4289-7"
         sodipodi:sides="6"
         sodipodi:cx="90.913727"
         sodipodi:cy="525.06256"
         sodipodi:r1="277.37839"
         sodipodi:r2="240.21674"
         sodipodi:arg1="0.34939328"
         sodipodi:arg2="0.87299206"
         inkscape:flatsided="true"
         inkscape:rounded="0"
         inkscape:randomized="0"
         d="M 351.53307,620.0169 138.99053,798.2427 -121.62881,703.28837 -169.70562,430.10823 42.83692,251.88242 303.45627,346.83675 Z"
         transform="matrix(0.56889992,-0.18938856,0.20540061,0.53320821,137.36876,2.2238068)" />
    </clipPath>
    <clipPath
       clipPathUnits="userSpaceOnUse"
       id="clipPath4287-2-2">
      <path
         sodipodi:type="star"
         style="opacity:0.222;fill:#2b1100;fill-opacity:1;stroke:#000000;stroke-width:5;stroke-linecap:round;stroke-linejoin:round;stroke-miterlimit:4;stroke-dasharray:none;stroke-opacity:1"
         id="path4289-7-3"
         sodipodi:sides="6"
         sodipodi:cx="90.913727"
         sodipodi:cy="525.06256"
         sodipodi:r1="277.37839"
         sodipodi:r2="240.21674"
         sodipodi:arg1="0.34939328"
         sodipodi:arg2="0.87299206"
         inkscape:flatsided="true"
         inkscape:rounded="0"
         inkscape:randomized="0"
         d="M 351.53307,620.0169 138.99053,798.2427 -121.62881,703.28837 -169.70562,430.10823 42.83692,251.88242 303.45627,346.83675 Z"
         transform="matrix(0.56889992,-0.18938856,0.20540061,0.53320821,137.36876,2.2238068)" />
    </clipPath>
    <filter
       inkscape:collect="always"
       style="color-interpolation-filters:sRGB"
       id="filter4675"
       x="-0.23531339"
       width="1.4706268"
       y="-0.20585382"
       height="1.4117076">
      <feGaussianBlur
         inkscape:collect="always"
         stdDeviation="21.210951"
         id="feGaussianBlur4677" />
    </filter>
    <clipPath
       clipPathUnits="userSpaceOnUse"
       id="clipPath4287-7">
      <path
         sodipodi:type="star"
         style="opacity:0.222;fill:#2b1100;fill-opacity:1;stroke:#000000;stroke-width:5;stroke-linecap:round;stroke-linejoin:round;stroke-miterlimit:4;stroke-dasharray:none;stroke-opacity:1"
         id="path4289-3"
         sodipodi:sides="6"
         sodipodi:cx="90.913727"
         sodipodi:cy="525.06256"
         sodipodi:r1="277.37839"
         sodipodi:r2="240.21674"
         sodipodi:arg1="0.34939328"
         sodipodi:arg2="0.87299206"
         inkscape:flatsided="true"
         inkscape:rounded="0"
         inkscape:randomized="0"
         d="M 351.53307,620.0169 138.99053,798.2427 -121.62881,703.28837 -169.70562,430.10823 42.83692,251.88242 303.45627,346.83675 Z"
         transform="matrix(0.56889992,-0.18938856,0.20540061,0.53320821,137.36876,2.2238068)" />
    </clipPath>
  </defs>
  <sodipodi:namedview
     id="base"
     pagecolor="#ffffff"
     bordercolor="#666666"
     borderopacity="1.0"
     inkscape:pageopacity="0.0"
     inkscape:pageshadow="2"
     inkscape:zoom="3.8155225"
     inkscape:cx="64.204868"
     inkscape:cy="192.26396"
     inkscape:document-units="px"
     inkscape:current-layer="layer2"
     showgrid="false"
     inkscape:window-width="1920"
     inkscape:window-height="1001"
     inkscape:window-x="-9"
     inkscape:window-y="-9"
     inkscape:window-maximized="1"
     fit-margin-top="0"
     fit-margin-left="0"
     fit-margin-right="0"
     fit-margin-bottom="0" />
  <metadata
     id="metadata7">
    <rdf:RDF>
      <cc:Work
         rdf:about="">
        <dc:format>image/svg+xml</dc:format>
        <dc:type
           rdf:resource="http://purl.org/dc/dcmitype/StillImage" />
        <dc:title />
      </cc:Work>
    </rdf:RDF>
  </metadata>
  <g
     inkscape:groupmode="layer"
     id="layer2"
     inkscape:label="char"
     transform="translate(-18.124954,15.115914)">
    <path
       style="opacity:1;fill:#000000;fill-opacity:1;stroke:#000000;stroke-width:5.6747098;stroke-linecap:round;stroke-linejoin:round;stroke-miterlimit:4;stroke-dasharray:none;stroke-opacity:1;filter:url(#filter4675)"
       d="m 134.65376,30.055054 c -2.4607,0.01768 -4.76566,0.651761 -6.87305,2.167968 -9.63378,6.93122 -5.18272,15.434648 -5.55859,26.832032 -0.37587,11.397372 -37.146494,40.23243 -37.146494,40.23243 5.60855,-4.655674 14.33526,-9.669424 24.957034,-14.791024 a 52.790699,46.450874 0 0 0 -1.30273,10.0918 52.790699,46.450874 0 0 0 7.39648,23.60548 87.189255,45.98988 0 0 0 -31.273434,35.22851 87.189255,45.98988 0 0 0 5.73242,16.35547 108.16664,67.07486 0 0 0 -22.10547,40.49414 108.16664,67.07486 0 0 0 108.166014,67.07617 108.16664,67.07486 0 0 0 108.16797,-67.07617 108.16664,67.07486 0 0 0 -28.50391,-45.26953 87.189255,45.98988 0 0 0 2.92188,-11.58008 87.189255,45.98988 0 0 0 -48.87891,-41.25 A 52.790699,46.450874 0 0 0 214.31,94.58826 52.790699,46.450874 0 0 0 187.65375,54.267944 c 11.20827,-3.791188 22.103,-7.333953 31.9629,-10.451172 0,0 -39.11943,2.687554 -54.47656,-2.402343 C 154.22301,37.79613 143.44196,29.99191 134.65376,30.055054 Z"
       id="path3386-3"
       inkscape:connector-curvature="0"
       transform="matrix(0.9866487,0,0,0.96714066,0.78594169,5.0505254)" />
    <ellipse
       style="opacity:1;fill:#88aa00;fill-opacity:1;stroke:#000000;stroke-width:4.51120234;stroke-linecap:round;stroke-linejoin:round;stroke-miterlimit:4;stroke-dasharray:none;stroke-opacity:1"
       id="path3386"
       cx="173.71783"
       cy="196.04129"
       rx="86.209038"
       ry="53.186035" />
    <path
       style="opacity:1;fill:#677821;fill-opacity:1;stroke:none;stroke-width:2;stroke-linecap:round;stroke-linejoin:round;stroke-miterlimit:4;stroke-dasharray:none;stroke-opacity:1"
       d="m 115.37025,207.4421 c 19.81532,35.17955 56.50381,39.83726 56.50381,39.83726 0,0 -69.97598,2.23754 -81.785853,-43.5065 -6.86803,-26.60243 23.455793,-45.3411 23.455793,-45.3411 0,0 -6.49991,34.2283 1.82625,49.01034 z"
       id="path4286-2-3"
       inkscape:connector-curvature="0"
       sodipodi:nodetypes="scscs" />
    <ellipse
       style="opacity:1;fill:#88aa00;fill-opacity:1;stroke:#000000;stroke-width:3.35373211;stroke-linecap:round;stroke-linejoin:round;stroke-miterlimit:4;stroke-dasharray:none;stroke-opacity:1"
       id="path3386-1"
       cx="170.04863"
       cy="150.96228"
       rx="69.490013"
       ry="36.467007" />
    <path
       style="opacity:1;fill:#677821;fill-opacity:1;stroke:none;stroke-width:2;stroke-linecap:round;stroke-linejoin:round;stroke-miterlimit:4;stroke-dasharray:none;stroke-opacity:1"
       d="m 118.62971,155.94193 c 20.60158,29.67572 43.66153,29.61586 43.66153,29.61586 0,0 -53.76581,-2.49041 -59.50843,-27.78126 -5.818613,-25.62552 23.97996,-33.28509 23.97996,-33.28509 0,0 -17.80812,17.51396 -8.13306,31.45049 z"
       id="path4286-2"
       inkscape:connector-curvature="0"
       sodipodi:nodetypes="scscs" />
    <ellipse
       style="opacity:1;fill:#88aa00;fill-opacity:1;stroke:#000000;stroke-width:2.62265635;stroke-linecap:round;stroke-linejoin:round;stroke-miterlimit:4;stroke-dasharray:none;stroke-opacity:1"
       id="path3386-1-7"
       cx="161.66182"
       cy="104.31076"
       rx="42.074295"
       ry="36.832546" />
    <path
       style="opacity:1;fill:#677821;fill-opacity:1;stroke:none;stroke-width:2;stroke-linecap:round;stroke-linejoin:round;stroke-miterlimit:4;stroke-dasharray:none;stroke-opacity:1"
       d="m 131.25969,111.12502 c 4.15622,17.45964 19.39447,27.51916 19.39447,27.51916 0,0 -24.17703,-2.16851 -29.0917,-27.25708 -4.35241,-22.21838 12.05602,-30.14004 12.05602,-30.14004 0,0 -4.82143,19.53278 -2.35879,29.87796 z"
       id="path4286"
       inkscape:connector-curvature="0"
       sodipodi:nodetypes="scscs" />
    <path
       style="opacity:1;fill:#aa8800;fill-opacity:1;stroke:#000000;stroke-width:4.88709927;stroke-linecap:round;stroke-linejoin:round;stroke-miterlimit:4;stroke-dasharray:none;stroke-opacity:1"
       inkscape:transform-center-x="-6.9930351"
       inkscape:transform-center-y="1.2484133"
       d="m 100.73466,108.037 c 0,0 29.30634,-22.86445 29.60591,-31.90183 0.29957,-9.03739 -3.24724,-15.77956 4.4309,-21.27557 7.67815,-5.49602 18.63817,3.61666 29.77535,7.28908 12.23967,4.03596 43.41851,1.90456 43.41851,1.90456 -36.36473,11.43809 -90.05215,29.7966 -107.23067,43.98376 z"
       id="path4218"
       inkscape:connector-curvature="0"
       sodipodi:nodetypes="cssscc" />
    <ellipse
       style="opacity:1;fill:#e6e6e6;fill-opacity:1;stroke:#000000;stroke-width:2;stroke-linecap:round;stroke-linejoin:round;stroke-miterlimit:4;stroke-dasharray:none;stroke-opacity:1"
       id="path4221-1"
       cx="112.7409"
       cy="145.12947"
       rx="12.842278"
       ry="7.6005321"
       transform="matrix(0.94736595,-0.32015272,0.32015272,0.94736595,0,0)" />
    <path
       style="opacity:1;fill:#800000;fill-opacity:1;stroke:#000000;stroke-width:2;stroke-linecap:round;stroke-linejoin:round;stroke-miterlimit:4;stroke-dasharray:none;stroke-opacity:1"
       inkscape:transform-center-x="2.6980324"
       inkscape:transform-center-y="0.39567964"
       d="m 194.02105,105.1117 c 0,0 -4.82211,16.39325 -11.71705,19.65477 -8.35974,3.9544 -27.43388,-4.13328 -27.43388,-4.13328 0,0 14.73505,0.007 21.43075,-2.6324 6.79496,-2.67891 17.72018,-12.88909 17.72018,-12.88909 z"
       id="path4240"
       inkscape:connector-curvature="0"
       sodipodi:nodetypes="cacac" />
    <ellipse
       style="opacity:1;fill:#e6e6e6;fill-opacity:1;stroke:#000000;stroke-width:1.82337487;stroke-linecap:round;stroke-linejoin:round;stroke-miterlimit:4;stroke-dasharray:none;stroke-opacity:1"
       id="path4221-1-0"
       cx="-156.60435"
       cy="120.70362"
       rx="11.565353"
       ry="7.0148621"
       transform="matrix(-0.98681135,0.16187452,0.24245133,0.97016357,0,0)" />
    <ellipse
       style="opacity:1;fill:#447821;fill-opacity:1;stroke:none;stroke-width:2;stroke-linecap:round;stroke-linejoin:round;stroke-miterlimit:4;stroke-dasharray:none;stroke-opacity:1"
       id="path4814"
       cx="156.24496"
       cy="102.88945"
       rx="3.9313097"
       ry="2.6208732" />
    <ellipse
       style="opacity:1;fill:#447821;fill-opacity:1;stroke:none;stroke-width:2;stroke-linecap:round;stroke-linejoin:round;stroke-miterlimit:4;stroke-dasharray:none;stroke-opacity:1"
       id="path4814-1"
       cx="185.33665"
       cy="93.454292"
       rx="3.9313097"
       ry="2.6208732" />
    <path
       style="opacity:1;fill:#aad400;fill-opacity:1;stroke:none;stroke-width:2;stroke-linecap:round;stroke-linejoin:round;stroke-miterlimit:4;stroke-dasharray:none;stroke-opacity:1"
       d="m 120.24034,159.99902 c -12.96812,-21.993 4.52264,-34.06363 4.52264,-34.06363 0,0 11.14135,3.60235 16.88397,28.8932 5.81862,25.62552 16.42061,30.69056 16.42061,30.69056 0,0 -22.76483,0.0246 -37.82722,-25.52013 z"
       id="path4286-2-53"
       inkscape:connector-curvature="0"
       sodipodi:nodetypes="scscs" />
    <g
       id="g5506-0-7"
       transform="matrix(0.16691824,0,0,0.1847648,141.45145,115.05078)">
      <g
         id="g5503-4-5">
        <path
           style="opacity:1;fill:#aa8800;fill-opacity:1;stroke:#00112b;stroke-width:10;stroke-linejoin:round;stroke-miterlimit:4;stroke-dasharray:none;stroke-dashoffset:0;stroke-opacity:1"
           d="M 332.85742,249.50586 C 182.16392,249.50579 60.002048,304.50981 60,372.36133 l 1.427734,37.14453 c 0.002,67.85152 122.163926,122.85554 272.857426,122.85547 150.6935,7e-5 272.85537,-55.00395 272.85742,-122.85547 l -1.42774,-37.14453 C 605.71284,304.50981 483.55092,249.50579 332.85742,249.50586 Z"
           id="path5445-8-6-4"
           inkscape:connector-curvature="0"
           sodipodi:nodetypes="sccsccs" />
      </g>
      <ellipse
         ry="110.93166"
         rx="268.51547"
         cy="361.41785"
         cx="335.37064"
         id="path5465-5-7"
         style="opacity:1;fill:#ffcc00;fill-opacity:1;stroke:#00112b;stroke-width:10.37023258;stroke-linejoin:round;stroke-miterlimit:4;stroke-dasharray:none;stroke-dashoffset:0;stroke-opacity:1" />
    </g>
    <path
       style="opacity:1;fill:#445016;fill-opacity:1;stroke:none;stroke-width:2;stroke-linecap:round;stroke-linejoin:round;stroke-miterlimit:4;stroke-dasharray:none;stroke-opacity:1"
       d="m 207.49931,142.42818 c -12.96812,-21.993 -17.07555,-6.64526 -9.19132,-19.60838 9.33442,-4.70086 30.71144,7.52471 33.93375,28.1519 1.6214,10.37917 -7.30082,16.97661 -7.30082,16.97661 0,0 -2.37922,0.0246 -17.44161,-25.52013 z"
       id="path4286-2-53-3"
       inkscape:connector-curvature="0"
       sodipodi:nodetypes="scscs" />
    <path
       style="opacity:1;fill:#677821;fill-opacity:1;stroke:none;stroke-width:2;stroke-linecap:round;stroke-linejoin:round;stroke-miterlimit:4;stroke-dasharray:none;stroke-opacity:1"
       d="m 226.64856,149.93412 c -20.60158,29.67572 -18.50115,24.89829 -18.50115,24.89829 0,0 23.36369,6.42056 29.10631,-18.87029 5.81862,-25.62552 -23.55051,-32.99127 -37.51857,-36.05949 -5.24898,14.11198 36.58847,16.09496 26.91341,30.03149 z"
       id="path4286-2-5"
       inkscape:connector-curvature="0"
       sodipodi:nodetypes="scscs" />
    <g
       id="g5506-0-7-5"
       transform="matrix(0.16691824,0,0,0.1847648,148.00364,101.42224)">
      <g
         id="g5503-4-5-1">
        <path
           style="opacity:1;fill:#aa8800;fill-opacity:1;stroke:#00112b;stroke-width:10;stroke-linejoin:round;stroke-miterlimit:4;stroke-dasharray:none;stroke-dashoffset:0;stroke-opacity:1"
           d="M 332.85742,249.50586 C 182.16392,249.50579 60.002048,304.50981 60,372.36133 l 1.427734,37.14453 c 0.002,67.85152 122.163926,122.85554 272.857426,122.85547 150.6935,7e-5 272.85537,-55.00395 272.85742,-122.85547 l -1.42774,-37.14453 C 605.71284,304.50981 483.55092,249.50579 332.85742,249.50586 Z"
           id="path5445-8-6-4-5"
           inkscape:connector-curvature="0"
           sodipodi:nodetypes="sccsccs" />
      </g>
      <ellipse
         ry="110.93166"
         rx="268.51547"
         cy="361.41785"
         cx="335.37064"
         id="path5465-5-7-7"
         style="opacity:1;fill:#ffcc00;fill-opacity:1;stroke:#00112b;stroke-width:10.37023258;stroke-linejoin:round;stroke-miterlimit:4;stroke-dasharray:none;stroke-dashoffset:0;stroke-opacity:1" />
    </g>
  </g>
</svg>
